<?xml version="1.0" encoding="UTF-8" standalone="no"?>
<!-- Created with Inkscape (http://www.inkscape.org/) -->

<svg
   xmlns:dc="http://purl.org/dc/elements/1.1/"
   xmlns:cc="http://creativecommons.org/ns#"
   xmlns:rdf="http://www.w3.org/1999/02/22-rdf-syntax-ns#"
   xmlns:svg="http://www.w3.org/2000/svg"
   xmlns="http://www.w3.org/2000/svg"
   xmlns:xlink="http://www.w3.org/1999/xlink"
   xmlns:sodipodi="http://sodipodi.sourceforge.net/DTD/sodipodi-0.dtd"
   xmlns:inkscape="http://www.inkscape.org/namespaces/inkscape"
   id="svg2"
   version="1.1"
   inkscape:version="0.48.3.1 r9886"
   width="545.66876"
   height="765.35376"
   xml:space="preserve"
   sodipodi:docname="150324_A5x2-nestpas.svg"><metadata
     id="metadata8"><rdf:RDF><cc:Work
         rdf:about=""><dc:format>image/svg+xml</dc:format><dc:type
           rdf:resource="http://purl.org/dc/dcmitype/StillImage" /><dc:title /></cc:Work></rdf:RDF></metadata><defs
     id="defs6" /><sodipodi:namedview
     pagecolor="#cccccc"
     bordercolor="#666666"
     borderopacity="1"
     objecttolerance="10"
     gridtolerance="10"
     guidetolerance="10"
     inkscape:pageopacity="1"
     inkscape:pageshadow="2"
     inkscape:window-width="640"
     inkscape:window-height="480"
     id="namedview4"
     showgrid="false"
     inkscape:zoom="1.2295981"
     inkscape:cx="906.17423"
     inkscape:cy="-835.25871"
     inkscape:current-layer="content"
     units="mm"
     guidecolor="#ff0000"
     guideopacity="0.47058824"
     guidehicolor="#00ff00"
     guidehiopacity="1"
     inkscape:snap-global="false"
     showguides="false"
     showborder="false"
     inkscape:showpageshadow="false"><sodipodi:guide
       position="21.259843,754.72441"
       orientation="0,1048.8189"
       id="guide4271" /><sodipodi:guide
       position="1070.0787,754.72441"
       orientation="744.09449,0"
       id="guide4273" /><sodipodi:guide
       position="1070.0787,10.62992"
       orientation="0,-1048.8189"
       id="guide4275" /><sodipodi:guide
       position="21.259843,10.62992"
       orientation="-744.09449,-4.6185278e-14"
       id="guide4277" /><sodipodi:guide
       position="545.669,10.63"
       orientation="-761.31029,0"
       id="guide4301" /><inkscape:grid
       type="xygrid"
       id="grid4326"
       empspacing="5"
       visible="true"
       enabled="true"
       snapvisiblegridlinesonly="true"
       units="mm"
       spacingx="8mm"
       spacingy="8mm"
       originx="10mm" /></sodipodi:namedview><g
     style="display:inline"
     id="refbuild"
     inkscape:groupmode="layer"
     inkscape:label="XX_Referenz"
     sodipodi:insensitive="true"><path
       style="color:#000000;fill:#ffffff;fill-opacity:1;fill-rule:nonzero;stroke:none;stroke-width:0;marker:none;visibility:visible;display:inline;overflow:visible;enable-background:accumulate"
       d="m 10.625,0 0,765.34375 10.625,0 524.40625,0 524.43755,0 10.625,0 0,-765.34375 -10.625,0 L 21.25,0 10.625,0 z"
       id="canvasfull"
       inkscape:connector-curvature="0" /><path
       style="color:#000000;fill:#ff00ff;fill-opacity:1;fill-rule:nonzero;stroke:none;stroke-width:0;marker:none;visibility:visible;display:inline;overflow:visible;enable-background:accumulate"
       d="m 10.625,0 0,765.34375 10.625,0 L 21.25,0 10.625,0 z"
       id="outercropleft"
       inkscape:connector-curvature="0" /><path
       style="color:#000000;fill:#ff00ff;fill-opacity:1;fill-rule:nonzero;stroke:none;stroke-width:0;marker:none;visibility:visible;display:inline;overflow:visible;enable-background:accumulate"
       d="m 10.625,754.71875 0,10.625 535.03125,0 0,-10.625 -535.03125,0 z"
       id="bottomcropleft"
       inkscape:connector-curvature="0" /><path
       style="color:#000000;fill:#ff00ff;fill-opacity:1;fill-rule:nonzero;stroke:none;stroke-width:0;marker:none;visibility:visible;display:inline;overflow:visible;enable-background:accumulate"
       d="m 10.625,0 0,10.625 535.03125,0 0,-10.625 L 10.625,0 z"
       id="topcropleft"
       inkscape:connector-curvature="0" /><path
       style="color:#000000;fill:none;stroke:#0000ff;stroke-width:1;stroke-linecap:butt;stroke-linejoin:miter;stroke-miterlimit:4;stroke-opacity:1;stroke-dasharray:none;stroke-dashoffset:0;marker:none;visibility:visible;display:inline;overflow:visible;enable-background:accumulate"
       d="m 10.629921,-10.00046 0,785.35433"
       id="beforecropleft"
       inkscape:connector-curvature="0"
       sodipodi:nodetypes="cc" /><path
       style="color:#000000;fill:#00ff00;fill-opacity:1;fill-rule:nonzero;stroke:none;stroke-width:0;marker:none;visibility:visible;display:inline;overflow:visible;enable-background:accumulate"
       d="m 1070.0938,0 0,765.34375 10.625,0 0,-765.34375 -10.625,0 z"
       id="outercropright"
       inkscape:connector-curvature="0" /><path
       style="color:#000000;fill:#00ff00;fill-opacity:1;fill-rule:nonzero;stroke:none;stroke-width:0;marker:none;visibility:visible;display:inline;overflow:visible;enable-background:accumulate"
       d="m 545.65625,754.71875 0,10.625 535.06255,0 0,-10.625 -535.06255,0 z"
       id="bottomcropright"
       inkscape:connector-curvature="0" /><path
       style="color:#000000;fill:#00ff00;fill-opacity:1;fill-rule:nonzero;stroke:none;stroke-width:0;marker:none;visibility:visible;display:inline;overflow:visible;enable-background:accumulate"
       d="m 545.65625,0 0,10.625 535.06255,0 0,-10.625 -535.06255,0 z"
       id="topcropright"
       inkscape:connector-curvature="0" /><path
       style="color:#000000;fill:#00ff00;fill-opacity:1;fill-rule:nonzero;stroke:#0000ff;stroke-width:1;stroke-linecap:butt;stroke-linejoin:miter;stroke-miterlimit:4;stroke-opacity:1;stroke-dasharray:none;stroke-dashoffset:0;marker:none;visibility:visible;display:inline;overflow:visible;enable-background:accumulate"
       d="m 1080.7081,-10.00046 0,785.35433"
       id="beforecropright"
       inkscape:connector-curvature="0"
       sodipodi:nodetypes="cc" /><path
       style="color:#000000;fill:#ffff00;fill-opacity:1;fill-rule:nonzero;stroke:#00ff00;stroke-width:0;stroke-linecap:round;stroke-linejoin:miter;stroke-miterlimit:4;stroke-opacity:1;stroke-dashoffset:0;marker:none;visibility:visible;display:inline;overflow:visible;enable-background:accumulate"
       d="m 556.29876,-4.6023438e-4 -10.63,0 0,765.35433023438 10.63,0 z"
       id="innercropright"
       inkscape:connector-curvature="0" /><path
       style="color:#000000;fill:#ffff00;fill-opacity:1;fill-rule:nonzero;stroke:#00ff00;stroke-width:0;stroke-linecap:round;stroke-linejoin:miter;stroke-miterlimit:4;stroke-opacity:1;stroke-dashoffset:0;marker:none;visibility:visible;display:inline;overflow:visible;enable-background:accumulate"
       d="m 545.66876,-4.6023438e-4 -10.63,0 0,765.35433023438 10.63,0 z"
       id="innercropleft"
       inkscape:connector-curvature="0" /><path
       style="opacity:0.5;color:#000000;fill:#ffffff;fill-opacity:1;stroke:none"
       d="m 21.25,10.625 0,744.0937 1048.8438,0 0,-744.0937 -1048.8438,0 z"
       id="canvasoverlay"
       inkscape:connector-curvature="0" /><path
       style="fill:none;stroke:#00ff00;stroke-width:1px;stroke-linecap:butt;stroke-linejoin:miter;stroke-opacity:1;display:inline"
       d="m 545.669,771.94051 0,-778.5270405"
       id="centerbuild"
       inkscape:connector-curvature="0" /></g><g
     inkscape:label="XX_PAGE"
     inkscape:groupmode="layer"
     id="refcanvas"
     style="display:inline"
     sodipodi:insensitive="true"><path
       sodipodi:nodetypes="ccccc"
       inkscape:connector-curvature="0"
       id="canvas"
       d="m 21.259843,10.62935 1048.818857,0 0,744.09449 -1048.818857,0 z"
       style="color:#000000;fill:#ffffff;fill-opacity:1;stroke:none;stroke-width:1;marker:none;visibility:visible;display:inline" /><path
       style="fill:none;stroke:#000000;stroke-width:1px;stroke-linecap:butt;stroke-linejoin:miter;stroke-opacity:1;display:inline"
       d="m 545.669,771.94051 0,-778.5270403"
       id="center"
       inkscape:connector-curvature="0" /></g><g
     inkscape:groupmode="layer"
     id="layer2"
     inkscape:label="XX_REF"
     sodipodi:insensitive="true"><image
       y="925.35376"
       x="40"
       id="image3368"
       xlink:href="file:///home/christoph/0000_Projekte/LFKN_Freeze+Press/Artwork/2015/150124--cecinestpasdesign/incoming/ceci-nest-pas-une-pipe1.jpg"
       height="800"
       width="1280" /></g><g
     inkscape:label="XX_001"
     inkscape:groupmode="layer"
     id="content"
     style="display:inline"><path
       style="fill:none;stroke:#ff0000;stroke-width:1px;stroke-linecap:butt;stroke-linejoin:miter;stroke-opacity:1;display:inline"
       d="m 392.66279,1540.4278 c 8.04455,-3.8786 6.2921,-17.16 -4.58841,-12.8734 -21.75436,8.5705 -31.94224,62.2595 13.49911,39.0633"
       id="path3007"
       inkscape:connector-curvature="0"
       sodipodi:nodetypes="csc" /><path
       style="fill:none;stroke:#ff0000;stroke-width:1px;stroke-linecap:butt;stroke-linejoin:miter;stroke-opacity:1;display:inline"
       d="m 402.26561,1566.0954 c 0,0 27.236,-12.9816 17.55175,-19.8764 -10.70886,-7.6242 -33.18375,43.6704 6.03341,18.8185"
       id="path3028"
       inkscape:connector-curvature="0"
       sodipodi:nodetypes="csc" /><path
       style="fill:none;stroke:#ff0000;stroke-width:1px;stroke-linecap:butt;stroke-linejoin:miter;stroke-opacity:1;display:inline"
       d="m 444.89935,1551.5247 c 3.16851,-3.2317 1.53533,-8.3164 -4.69281,-6.8427 -13.33197,3.1546 -17.53005,37.2784 7.91331,21.5271"
       id="path3007-0"
       inkscape:connector-curvature="0"
       sodipodi:nodetypes="csc" /><path
       style="fill:none;stroke:#ff0000;stroke-width:1px;stroke-linecap:butt;stroke-linejoin:miter;stroke-opacity:1;display:inline"
       d="m 449.50116,1565.2827 c 7.04197,-4.0469 9.77789,-9.6052 14.88697,-20.1708 -3.40497,7.8112 -19.62115,32.8892 3.76832,25.0971"
       id="path3048"
       inkscape:connector-curvature="0"
       sodipodi:nodetypes="ccc" /><path
       style="fill:none;stroke:#ff0000;stroke-width:1px;stroke-linecap:butt;stroke-linejoin:miter;stroke-opacity:1;display:inline"
       d="m 506.90039,1549.5155 c 15.95057,-10.9979 17.77718,-9.8018 5.2574,19.8149 7.49874,-18.4367 12.94415,-29.1263 21.77671,-25.2958 8.0921,3.5094 -15.25506,33.1173 4.40569,23.8737"
       id="path3050"
       inkscape:connector-curvature="0"
       sodipodi:nodetypes="ccsc" /><path
       style="fill:none;stroke:#ff0000;stroke-width:1px;stroke-linecap:butt;stroke-linejoin:miter;stroke-opacity:1;display:inline"
       d="m 559.24334,1561.5096 c 0,0 29.97624,-10.9267 22.14863,-17.8652 -15.16512,-13.4425 -29.73609,46.4716 4.88419,19.3213"
       id="path3028-6"
       inkscape:connector-curvature="0"
       sodipodi:nodetypes="csc" /><path
       style="fill:none;stroke:#ff0000;stroke-width:1px;stroke-linecap:butt;stroke-linejoin:miter;stroke-opacity:1;display:inline"
       d="m 587.67538,1561.5898 c 11.10716,-12.0409 12.38027,-16.3716 14.14978,-20.946 -1.82052,4.4488 -1.8503,5.0667 -1.64205,5.6901 17.22076,17.0917 -1.19647,31.5215 -7.21599,16.9921 3.00234,7.0516 10.46363,10.7177 16.47759,-3.3554"
       id="path3070"
       inkscape:connector-curvature="0"
       sodipodi:nodetypes="ccccc" /><path
       style="fill:none;stroke:#ff0000;stroke-width:1px;stroke-linecap:butt;stroke-linejoin:miter;stroke-opacity:1;display:inline"
       d="m 611.41663,1558.2903 c 0,0 6.87593,-8.8846 17.93718,-27.5594 -12.06682,28.0122 -20.01976,45.9062 -2.43787,35.7553"
       id="path3072"
       inkscape:connector-curvature="0"
       sodipodi:nodetypes="ccc" /><path
       style="fill:none;stroke:#ff0000;stroke-width:1px;stroke-linecap:butt;stroke-linejoin:miter;stroke-opacity:1;display:inline"
       d="m 616.76502,1543.9206 18.24388,-4.4533"
       id="path3074"
       inkscape:connector-curvature="0" /><path
       style="color:#000000;fill:none;stroke:#ff0000;stroke-width:1px;stroke-linecap:butt;stroke-linejoin:miter;stroke-miterlimit:4;stroke-opacity:1;stroke-dasharray:none;stroke-dashoffset:0;marker:none;visibility:visible;display:inline;overflow:visible;enable-background:accumulate"
       d="m 646.51544,1580.5693 c 0,0 12.90282,-30.6356 17.965,-40.4654 -3.37347,2.3568 -3.26613,2.1715 -8.06754,4.4285 7.86793,-1.967 26.75225,-8.3525 18.45866,3.9037 -8.29359,12.2562 -9.46603,25.6552 5.73227,14.8912"
       id="path2993"
       inkscape:connector-curvature="0"
       sodipodi:nodetypes="ccczc" /><path
       style="color:#000000;fill:none;stroke:#ff0000;stroke-width:1px;stroke-linecap:butt;stroke-linejoin:miter;stroke-miterlimit:4;stroke-opacity:1;stroke-dasharray:none;stroke-dashoffset:0;marker:none;visibility:visible;display:inline;overflow:visible;enable-background:accumulate"
       d="m 708.07036,1550.6699 c 0,0 -0.80137,-11.095 -7.99442,-11.4547 -7.19305,-0.3596 -19.62833,16.5713 -13.60243,25.0571 12.11765,12.7379 22.70064,-15.2728 26.84691,-23.7446 -7.63668,14.8337 -11.96997,38.1709 6.75176,21.8349"
       id="path3012"
       inkscape:connector-curvature="0"
       sodipodi:nodetypes="czccc" /><path
       style="fill:none;stroke:#ff0000;stroke-width:1px;stroke-linecap:butt;stroke-linejoin:miter;stroke-opacity:1;display:inline"
       d="m 720.67538,1561.5898 c 11.32602,-12.588 13.91227,-20.3111 15.68178,-24.8855 -1.82052,4.4488 -1.8503,5.0667 -1.64205,5.6902 14.81333,18.8425 -2.07283,32.2027 -5.24627,19.6184"
       id="path3070-8"
       inkscape:connector-curvature="0"
       sodipodi:nodetypes="cccc" /><path
       style="color:#000000;fill:none;stroke:#ff0000;stroke-width:1px;stroke-linecap:butt;stroke-linejoin:miter;stroke-miterlimit:4;stroke-opacity:1;stroke-dasharray:none;stroke-dashoffset:0;marker:none;visibility:visible;display:inline;overflow:visible;enable-background:accumulate"
       d="m 769.81184,1548.8077 c 3.68076,-3.0469 7.97186,-10.5616 7.97186,-10.5616 -5.96062,14.6306 -14.98305,24.079 -4.92608,28.3472 10.05697,4.2683 17.55731,-17.2423 21.67815,-28.0234 -8.99953,21.8545 -10.93214,34.3625 1.22538,26.0931"
       id="path3049"
       inkscape:connector-curvature="0"
       sodipodi:nodetypes="cczcc" /><path
       style="fill:none;stroke:#ff0000;stroke-width:1px;stroke-linecap:butt;stroke-linejoin:miter;stroke-opacity:1;display:inline"
       d="m 797.0879,1562.9225 c 5.55943,-5.3362 13.84446,-25.2611 15.82623,-24.3078 1.98643,0.9555 1.88003,4.7411 -7.4004,28.3052 9.00534,-23.4085 13.16296,-32.5634 21.47539,-27.7065 7.03748,4.1121 -17.06298,35.9799 6.06295,26.7363"
       id="path3050-6"
       inkscape:connector-curvature="0"
       sodipodi:nodetypes="cscsc" /><path
       style="fill:none;stroke:#ff0000;stroke-width:1px;stroke-linecap:butt;stroke-linejoin:miter;stroke-opacity:1;display:inline"
       d="m 834.11647,1565.2476 c 11.68337,-6.1492 35.61758,-20.3637 23.70089,-27.4091 -13.86859,-8.1994 -29.34054,49.3584 4.18867,22.2005"
       id="path3028-7"
       inkscape:connector-curvature="0"
       sodipodi:nodetypes="csc" /><path
       style="color:#000000;fill:none;stroke:#ff0000;stroke-width:1px;stroke-linecap:butt;stroke-linejoin:miter;stroke-miterlimit:4;stroke-opacity:1;stroke-dasharray:none;stroke-dashoffset:0;marker:none;visibility:visible;display:inline;overflow:visible;enable-background:accumulate"
       d="m 881.75409,1578.6898 c 0,0 13.86586,-34.6015 18.92804,-44.4314 -3.37347,2.3568 -2.70732,3.232 -9.78237,7.2668 11.70746,-7.2441 30.63651,-14.1163 19.58635,5.1567 -11.05017,19.273 1.81086,19.5155 9.11533,12.0093"
       id="path2993-5"
       inkscape:connector-curvature="0"
       sodipodi:nodetypes="ccczc" /><path
       style="fill:none;stroke:#ff0000;stroke-width:1px;stroke-linecap:butt;stroke-linejoin:miter;stroke-opacity:1;display:inline"
       d="m 920.44685,1557.8937 c 4.51276,-5.7331 7.98637,-13.3991 13.09545,-23.9647 -8.358,15.8205 -15.51119,37.5261 3.8737,22.2518"
       id="path3048-5"
       inkscape:connector-curvature="0"
       sodipodi:nodetypes="ccc" /><path
       style="color:#000000;fill:none;stroke:#ff0000;stroke-width:1px;stroke-linecap:butt;stroke-linejoin:miter;stroke-miterlimit:4;stroke-opacity:1;stroke-dasharray:none;stroke-dashoffset:0;marker:none;visibility:visible;display:inline;overflow:visible;enable-background:accumulate"
       d="m 937.70813,1555.837 c 7.63999,-6.9536 15.35378,-17.8095 17.974,-21.5786 -5.06218,9.8299 -18.92804,44.4314 -18.92804,44.4314 l 12.03769,-29.1752 c 10.53879,-24.394 29.75588,-19.3766 19.98312,-3.1987 -9.77275,16.1779 -0.81803,20.7294 7.59872,14.5065"
       id="path2993-5-8"
       inkscape:connector-curvature="0"
       sodipodi:nodetypes="cccczc" /><path
       style="fill:none;stroke:#ff0000;stroke-width:1px;stroke-linecap:butt;stroke-linejoin:miter;stroke-opacity:1;display:inline"
       d="m 977.44009,1560.1485 c 8.97336,-4.4625 34.53551,-13.399 23.40701,-24.8828 -12.98613,-13.4007 -35.8213,50.3863 8.937,22.2722"
       id="path3028-6-6"
       inkscape:connector-curvature="0"
       sodipodi:nodetypes="csc" /><path
       id="path3028-4"
       style="fill:none;stroke:#00ff00;stroke-width:3;stroke-linecap:butt;stroke-linejoin:miter;stroke-miterlimit:4;stroke-opacity:1;stroke-dasharray:none;display:inline"
       d="m 392.66279,1850.4278 c 8.04455,-3.8786 6.46087,-16.704 -4.58841,-12.8734 -20.01336,6.9383 -31.83343,63.4564 13.84517,38.8021 0,0 27.58206,-13.2428 17.89781,-20.1375 -10.70886,-7.6242 -29.66764,42.4398 9.54952,17.5879"
       inkscape:connector-curvature="0"
       sodipodi:nodetypes="cscsc" /><path
       id="path3048-0"
       style="fill:none;stroke:#00ff00;stroke-width:3;stroke-linecap:butt;stroke-linejoin:miter;stroke-miterlimit:4;stroke-opacity:1;stroke-dasharray:none;display:inline"
       d="m 447.32843,1860.3969 c 0.13216,-3.0582 -0.89375,-7.1886 -7.12189,-5.7149 -13.33197,3.1546 -17.53005,37.2785 8.60396,21.0639 7.73263,-4.5101 10.46855,-10.0684 15.57763,-20.634 -3.40497,7.8112 -19.62115,32.8892 3.76832,25.0971"
       inkscape:connector-curvature="0"
       sodipodi:nodetypes="csccc" /><path
       style="fill:none;stroke:#00ff00;stroke-width:3;stroke-linecap:butt;stroke-linejoin:miter;stroke-miterlimit:4;stroke-opacity:1;stroke-dasharray:none;display:inline"
       d="m 506.90039,1859.5155 c 15.95057,-10.9979 17.77718,-9.8018 5.2574,19.8149 7.49874,-18.4367 12.94415,-29.1263 21.77671,-25.2958 8.0921,3.5094 -15.25506,33.1173 4.40569,23.8737"
       id="path3050-2"
       inkscape:connector-curvature="0"
       sodipodi:nodetypes="ccsc" /><path
       id="path3072-7"
       style="fill:none;stroke:#00ff00;stroke-width:3;stroke-linecap:butt;stroke-linejoin:miter;stroke-miterlimit:4;stroke-opacity:1;stroke-dasharray:none;display:inline"
       d="m 559.24334,1871.5096 c 0,0 29.97624,-10.9267 22.14863,-17.8652 -15.16512,-13.4425 -29.73609,46.4716 5.5838,18.6334 11.80677,-12.7289 13.07988,-17.0596 14.84939,-21.634 -1.82052,4.4487 -0.58407,1.9714 -0.37582,2.5949 17.22076,17.0917 -2.4627,34.6168 -8.48222,20.0873 10.44546,21.3595 30.19608,-22.215 36.38669,-32.5951 -12.06682,28.0122 -20.01976,45.9063 -2.43787,35.7553"
       inkscape:connector-curvature="0"
       sodipodi:nodetypes="cscccccc" /><path
       style="fill:none;stroke:#00ff00;stroke-width:3;stroke-linecap:butt;stroke-linejoin:miter;stroke-miterlimit:4;stroke-opacity:1;stroke-dasharray:none;display:inline"
       d="m 615.04314,1851.2148 19.96576,-1.7475"
       id="path3074-6"
       inkscape:connector-curvature="0"
       sodipodi:nodetypes="cc" /><path
       style="color:#000000;fill:none;stroke:#00ff00;stroke-width:3;stroke-linecap:butt;stroke-linejoin:miter;stroke-miterlimit:4;stroke-opacity:1;stroke-dasharray:none;stroke-dashoffset:0;marker:none;visibility:visible;display:inline;overflow:visible;enable-background:accumulate"
       d="m 646.51544,1890.5693 c 0,0 12.90282,-30.6356 17.965,-40.4654 -3.37347,2.3568 -3.26613,2.1715 -8.06754,4.4285 7.86793,-1.967 25.02291,-7.9202 18.45866,3.9037 -6.56425,11.8239 -8.31314,25.367 10.19972,13.7383"
       id="path2993-1"
       inkscape:connector-curvature="0"
       sodipodi:nodetypes="ccczc" /><path
       id="path3070-8-1"
       style="fill:none;stroke:#00ff00;stroke-width:3;stroke-linecap:butt;stroke-linejoin:miter;stroke-miterlimit:4;stroke-opacity:1;stroke-dasharray:none;display:inline"
       d="m 708.07036,1860.6699 c 0,0 -0.80137,-11.095 -7.99442,-11.4547 -7.19305,-0.3597 -19.62833,16.5713 -13.60243,25.0571 12.11765,12.738 22.70064,-15.2728 26.84691,-23.7446 -7.63668,14.8337 -11.96997,38.171 7.05336,21.4485 11.62762,-12.9744 14.21387,-20.6975 15.98338,-25.2719 -1.82052,4.4488 -1.8503,5.0667 -1.64205,5.6902 14.81333,18.8425 -2.07283,32.2027 -5.24627,19.6184"
       inkscape:connector-curvature="0"
       sodipodi:nodetypes="cscccccc" /><path
       id="path3028-7-4"
       style="fill:none;stroke:#00ff00;stroke-width:3;stroke-linecap:butt;stroke-linejoin:miter;stroke-miterlimit:4;stroke-opacity:1;stroke-dasharray:none;display:inline"
       d="m 769.81184,1858.8077 c 3.68076,-3.0469 7.97186,-10.5616 7.97186,-10.5616 -5.96062,14.6306 -13.23046,26.6122 -2.54667,28.8963 9.69091,2.0719 15.1779,-17.7914 19.29874,-28.5725 -8.99953,21.8545 -3.51623,35.2343 4.21643,22.8952 7.73265,-12.3392 9.64088,-28.0358 14.16193,-22.8504 1.44859,1.6614 2.80677,4.5179 -5.41563,28.7168 7.94731,-24.0433 11.00745,-32.6703 19.49062,-28.1181 10.42319,5.5933 -16.14782,35.2478 10.25579,24.921 12.21557,-6.5002 32.48914,-19.2505 20.57245,-26.2959 -13.86859,-8.1994 -25.6799,48.4432 10.22872,21.4684"
       inkscape:connector-curvature="0"
       sodipodi:nodetypes="ccscsscscsc" /><path
       id="path3028-6-6-8"
       style="fill:none;stroke:#00ff00;stroke-width:3;stroke-linecap:butt;stroke-linejoin:miter;stroke-miterlimit:4;stroke-opacity:1;stroke-dasharray:none;display:inline"
       d="m 881.75409,1888.6898 c 0,0 13.86586,-34.6015 18.92804,-44.4314 -3.37347,2.3568 -2.70732,3.232 -9.78237,7.2668 11.70746,-7.2441 30.63651,-14.1163 19.58635,5.1567 -11.05017,19.273 1.81086,19.5155 9.53804,11.6106 4.93546,-6.1319 8.40907,-13.7979 13.51815,-24.3635 -8.358,15.8204 -15.51119,37.5261 4.01977,22.0799 7.78605,-7.1255 15.49984,-17.9814 18.12006,-21.7505 -5.06218,9.8298 -18.92804,44.4314 -18.92804,44.4314 l 12.03769,-29.1752 c 10.53879,-24.394 29.24252,-22.5966 16.98312,1.8959 -12.2594,24.4925 52.2475,-8.4634 29.48438,-17.5761 -13.11891,-4.5731 -29.38747,48.4018 11.52482,22.7035"
       inkscape:connector-curvature="0"
       sodipodi:nodetypes="cccscccccczcc" /><path
       id="path3028-4-7"
       style="fill:none;stroke:#00ff00;stroke-width:3;stroke-linecap:butt;stroke-linejoin:miter;stroke-miterlimit:4;stroke-opacity:1;stroke-dasharray:none;display:inline"
       d="m 392.66279,2030.4279 c 8.04455,-3.8786 6.46087,-16.7041 -4.58841,-12.8735 -20.01336,6.9383 -31.83343,63.4564 13.84517,38.8021 0,0 27.58206,-13.2427 17.89781,-20.1374 -10.70886,-7.6242 -29.66764,42.4397 9.54952,17.5878"
       inkscape:connector-curvature="0"
       sodipodi:nodetypes="cscsc" /><path
       id="path3048-0-3"
       style="fill:none;stroke:#00ff00;stroke-width:3;stroke-linecap:butt;stroke-linejoin:miter;stroke-miterlimit:4;stroke-opacity:1;stroke-dasharray:none;display:inline"
       d="m 447.32843,2040.397 c 0.13216,-3.0583 -0.89375,-7.1887 -7.12189,-5.715 -13.33197,3.1547 -17.53005,37.2785 8.60396,21.0639 7.73263,-4.5101 10.46855,-10.0684 15.57763,-20.634 -3.40497,7.8113 -19.62115,32.8892 3.76832,25.0971"
       inkscape:connector-curvature="0"
       sodipodi:nodetypes="csccc" /><path
       style="fill:none;stroke:#00ff00;stroke-width:3;stroke-linecap:butt;stroke-linejoin:miter;stroke-miterlimit:4;stroke-opacity:1;stroke-dasharray:none;display:inline"
       d="m 486.90039,2039.5156 c 15.95057,-10.998 17.77718,-9.8019 5.2574,19.8149 7.49874,-18.4367 12.94415,-29.1264 21.77671,-25.2959 8.0921,3.5094 -15.25506,33.1173 4.40569,23.8738"
       id="path3050-2-2"
       inkscape:connector-curvature="0"
       sodipodi:nodetypes="ccsc" /><path
       id="path3072-7-7"
       style="fill:none;stroke:#00ff00;stroke-width:3;stroke-linecap:butt;stroke-linejoin:miter;stroke-miterlimit:4;stroke-opacity:1;stroke-dasharray:none;display:inline"
       d="m 539.24334,2051.5096 c 0,0 29.97624,-10.9267 22.14863,-17.8651 -15.16512,-13.4426 -29.73609,46.4715 5.5838,18.6333 11.80677,-12.7288 13.07988,-17.0596 14.84939,-21.634 -1.82052,4.4488 -0.58407,1.9714 -0.37582,2.5949 17.22076,17.0917 -2.4627,34.6168 -8.48222,20.0873 10.44546,21.3595 30.19608,-22.215 36.38669,-32.5951 -12.06682,28.0123 -20.01976,45.9063 -2.43787,35.7554"
       inkscape:connector-curvature="0"
       sodipodi:nodetypes="cscccccc" /><path
       style="fill:none;stroke:#00ff00;stroke-width:3;stroke-linecap:butt;stroke-linejoin:miter;stroke-miterlimit:4;stroke-opacity:1;stroke-dasharray:none;display:inline"
       d="m 595.04314,2031.2148 19.96576,-1.7474"
       id="path3074-6-1"
       inkscape:connector-curvature="0"
       sodipodi:nodetypes="cc" /><path
       style="color:#000000;fill:none;stroke:#00ff00;stroke-width:3;stroke-linecap:butt;stroke-linejoin:miter;stroke-miterlimit:4;stroke-opacity:1;stroke-dasharray:none;stroke-dashoffset:0;marker:none;visibility:visible;display:inline;overflow:visible;enable-background:accumulate"
       d="m 626.51544,2070.5693 c 0,0 12.90282,-30.6355 17.965,-40.4654 -3.37347,2.3568 -3.26613,2.1716 -8.06754,4.4285 7.86793,-1.967 25.02291,-7.9202 18.45866,3.9037 -6.56425,11.8239 -8.31314,25.367 10.19972,13.7383"
       id="path2993-1-3"
       inkscape:connector-curvature="0"
       sodipodi:nodetypes="ccczc" /><path
       id="path3070-8-1-4"
       style="fill:none;stroke:#00ff00;stroke-width:3;stroke-linecap:butt;stroke-linejoin:miter;stroke-miterlimit:4;stroke-opacity:1;stroke-dasharray:none;display:inline"
       d="m 688.07036,2040.6699 c 0,0 -0.80137,-11.095 -7.99442,-11.4547 -7.19305,-0.3596 -19.62833,16.5713 -13.60243,25.0571 12.11765,12.738 22.70064,-15.2727 26.84691,-23.7445 -7.63668,14.8336 -11.96997,38.1709 7.05336,21.4484 11.62762,-12.9744 14.21387,-20.6974 15.98338,-25.2718 -1.82052,4.4487 -1.8503,5.0666 -1.64205,5.6901 14.81333,18.8426 -2.07283,32.2027 -5.24627,19.6184"
       inkscape:connector-curvature="0"
       sodipodi:nodetypes="cscccccc" /><text
       xml:space="preserve"
       style="font-size:56.62425995px;font-style:normal;font-variant:normal;font-weight:300;font-stretch:normal;text-align:start;line-height:125%;letter-spacing:0px;word-spacing:0px;writing-mode:lr-tb;text-anchor:start;fill:#00ff00;fill-opacity:1;stroke:none;display:inline;font-family:Aileron;-inkscape-font-specification:Aileron Light"
       x="743.21448"
       y="2058.1885"
       id="text4057"
       sodipodi:linespacing="125%"><tspan
         sodipodi:role="line"
         id="tspan4059"
         x="743.21448"
         y="2058.1885">design</tspan></text>
<path
       style="color:#000000;fill:none;stroke:#00ff00;stroke-width:3;stroke-linecap:butt;stroke-linejoin:miter;stroke-miterlimit:4;stroke-opacity:1;stroke-dasharray:none;stroke-dashoffset:0;marker:none;visibility:visible;display:inline;overflow:visible;enable-background:accumulate"
       d="m 530.53692,2038.576 4.90587,-13.7364"
       id="path4061"
       inkscape:connector-curvature="0" /><path
       style="color:#000000;fill:none;stroke:#00ff00;stroke-width:3;stroke-linecap:butt;stroke-linejoin:miter;stroke-miterlimit:4;stroke-opacity:1;stroke-dashoffset:0;marker:none;visibility:visible;display:inline;overflow:visible;enable-background:accumulate"
       d="m 472.37015,2025.4938 c 0,2.1675 -1.75714,3.9246 -3.92469,3.9246 -2.16755,0 -3.92469,-1.7571 -3.92469,-3.9246 0,-2.1676 1.75714,-3.9247 3.92469,-3.9247 2.16755,0 3.92469,1.7571 3.92469,3.9247 z"
       id="path4080"
       inkscape:connector-curvature="0" /><path
       style="color:#000000;fill:none;stroke:#00ff00;stroke-width:3;stroke-linecap:butt;stroke-linejoin:miter;stroke-miterlimit:4;stroke-opacity:1;stroke-dasharray:none;stroke-dashoffset:0;marker:none;visibility:visible;display:inline;overflow:visible;enable-background:accumulate"
       d="m 735.41234,2049.0594 183.26161,0"
       id="path4083"
       inkscape:connector-curvature="0" /><path
       style="color:#000000;fill:none;stroke:#00ff00;stroke-width:3;stroke-linecap:butt;stroke-linejoin:miter;stroke-miterlimit:4;stroke-opacity:1;stroke-dasharray:none;stroke-dashoffset:0;marker:none;visibility:visible;display:inline;overflow:visible;enable-background:accumulate"
       d="m 735.41234,2037.0594 183.26161,0"
       id="path4083-6"
       inkscape:connector-curvature="0" /><path
       id="path3028-4-4"
       style="fill:none;stroke:#00ff00;stroke-width:3;stroke-linecap:butt;stroke-linejoin:miter;stroke-miterlimit:4;stroke-opacity:1;stroke-dasharray:none;display:inline"
       d="m 392.66279,2210.4279 -4.58841,-12.8735 13.84517,38.8021 17.89781,-20.1374 9.54952,17.5878"
       inkscape:connector-curvature="0"
       sodipodi:nodetypes="ccccc" /><path
       id="path3048-0-9"
       style="fill:none;stroke:#00ff00;stroke-width:3;stroke-linecap:butt;stroke-linejoin:miter;stroke-miterlimit:4;stroke-opacity:1;stroke-dasharray:none;display:inline"
       d="m 447.32843,2220.397 -7.12189,-5.715 8.60396,21.0639 15.57763,-20.634 3.76832,25.0971"
       inkscape:connector-curvature="0"
       sodipodi:nodetypes="ccccc" /><path
       style="fill:none;stroke:#00ff00;stroke-width:3;stroke-linecap:butt;stroke-linejoin:miter;stroke-miterlimit:4;stroke-opacity:1;stroke-dasharray:none;display:inline"
       d="m 506.90039,2219.5156 5.2574,19.8149 21.77671,-25.2959 4.40569,23.8738"
       id="path3050-2-5"
       inkscape:connector-curvature="0"
       sodipodi:nodetypes="cccc" /><path
       id="path3072-7-3"
       style="fill:none;stroke:#00ff00;stroke-width:3;stroke-linecap:butt;stroke-linejoin:miter;stroke-miterlimit:4;stroke-opacity:1;stroke-dasharray:none;display:inline"
       d="m 559.24334,2231.5096 22.14863,-17.8651 5.5838,18.6333 14.84939,-21.634 -0.37582,2.5949 -8.48222,20.0873 36.38669,-32.5951 -2.43787,35.7554"
       inkscape:connector-curvature="0"
       sodipodi:nodetypes="cccccccc" /><path
       style="fill:none;stroke:#00ff00;stroke-width:3;stroke-linecap:butt;stroke-linejoin:miter;stroke-miterlimit:4;stroke-opacity:1;stroke-dasharray:none;display:inline"
       d="m 615.04314,2211.2148 19.96576,-1.7474"
       id="path3074-6-8"
       inkscape:connector-curvature="0"
       sodipodi:nodetypes="cc" /><path
       style="color:#000000;fill:none;stroke:#00ff00;stroke-width:3;stroke-linecap:butt;stroke-linejoin:miter;stroke-miterlimit:4;stroke-opacity:1;stroke-dasharray:none;stroke-dashoffset:0;marker:none;visibility:visible;display:inline;overflow:visible;enable-background:accumulate"
       d="m 646.51544,2250.5693 17.965,-40.4654 -8.06754,4.4285 18.45866,3.9037 10.19972,13.7383"
       id="path2993-1-7"
       inkscape:connector-curvature="0"
       sodipodi:nodetypes="ccccc" /><path
       id="path3070-8-1-5"
       style="fill:none;stroke:#00ff00;stroke-width:3;stroke-linecap:butt;stroke-linejoin:miter;stroke-miterlimit:4;stroke-opacity:1;stroke-dasharray:none;display:inline"
       d="m 708.07036,2220.6699 -7.99442,-11.4547 -13.60243,25.0571 26.84691,-23.7445 7.05336,21.4484 15.98338,-25.2718 -1.64205,5.6901 -5.24627,19.6184"
       inkscape:connector-curvature="0"
       sodipodi:nodetypes="cccccccc" /><path
       id="path3028-7-4-6"
       style="fill:none;stroke:#00ff00;stroke-width:3;stroke-linecap:butt;stroke-linejoin:miter;stroke-miterlimit:4;stroke-opacity:1;stroke-dasharray:none;display:inline"
       d="m 769.81184,2218.8077 7.97186,-10.5616 -2.54667,28.8964 19.29874,-28.5726 4.21643,22.8952 14.16193,-22.8504 -5.41563,28.7168 19.49062,-28.118 10.25579,24.9209 20.57245,-26.2958 10.22872,21.4683"
       inkscape:connector-curvature="0"
       sodipodi:nodetypes="ccccccccccc" /><path
       id="path3028-6-6-8-6"
       style="fill:none;stroke:#00ff00;stroke-width:3;stroke-linecap:butt;stroke-linejoin:miter;stroke-miterlimit:4;stroke-opacity:1;stroke-dasharray:none;display:inline"
       d="m 881.75409,2248.6898 18.92804,-44.4314 -9.78237,7.2668 19.58635,5.1567 9.53804,11.6106 13.51815,-24.3635 4.01977,22.0799 18.12006,-21.7505 -18.92804,44.4314 12.03769,-29.1752 16.98312,1.8959 29.48438,-17.5761 11.52482,22.7035"
       inkscape:connector-curvature="0"
       sodipodi:nodetypes="ccccccccccccc" /><path
       id="path3028-4-43"
       style="fill:none;stroke:#00ff00;stroke-width:3;stroke-linecap:butt;stroke-linejoin:miter;stroke-miterlimit:4;stroke-opacity:1;stroke-dasharray:none;display:inline"
       d="m 401.28481,2336.1966 c -2.79153,-35.0745 -43.63102,-26.3922 -33.16726,32.0149 10.46376,58.4071 69.0344,-5.808 48.19861,-11.0955 -20.83579,-5.2875 -23.01536,52.243 16.2018,27.3911"
       inkscape:connector-curvature="0"
       sodipodi:nodetypes="czzc" /><path
       id="path3048-0-96"
       style="fill:none;stroke:#00ff00;stroke-width:3;stroke-linecap:butt;stroke-linejoin:miter;stroke-miterlimit:4;stroke-opacity:1;stroke-dasharray:none;display:inline"
       d="m 455.03107,2365.8454 c -5.11964,-13.2117 -31.92039,-6.1307 -21.47681,19.4937 10.44359,25.6243 40.53535,-25.9533 32.23435,-26.1792 -7.85265,-0.2138 15.04072,69.6518 17.77312,25.7973"
       inkscape:connector-curvature="0"
       sodipodi:nodetypes="czsc" /><path
       style="fill:none;stroke:#00ff00;stroke-width:3;stroke-linecap:butt;stroke-linejoin:miter;stroke-miterlimit:4;stroke-opacity:1;stroke-dasharray:none;display:inline"
       d="m 506.90039,2369.5156 c 4.04649,-17.6503 12.17526,-3.8499 7.35812,28.918 1.19658,-23.6885 10.91748,-38.3959 19.67599,-34.399 12.29354,5.6101 2.60106,58.3259 22.26181,49.0824"
       id="path3050-2-1"
       inkscape:connector-curvature="0"
       sodipodi:nodetypes="ccsc" /><path
       id="path3072-7-2"
       style="fill:none;stroke:#00ff00;stroke-width:3;stroke-linecap:butt;stroke-linejoin:miter;stroke-miterlimit:4;stroke-opacity:1;stroke-dasharray:none;display:inline"
       d="m 553.72709,2394.5279 c 0,0 39.82956,-36.0454 16.63239,-34.1931 -23.19718,1.8522 2.56037,55.0355 33.01023,-2.3388 -1.82052,4.4488 -2.12862,4.6192 -1.92037,5.2427 17.22076,17.0917 1.72965,41.8982 -15.10172,34.4295 24.78771,8.5618 36.81558,-36.5572 43.00619,-46.9373 -12.06682,28.0123 -27.30121,55.6149 5.06423,40.389"
       inkscape:connector-curvature="0"
       sodipodi:nodetypes="czccccc" /><path
       style="fill:none;stroke:#00ff00;stroke-width:3;stroke-linecap:butt;stroke-linejoin:miter;stroke-miterlimit:4;stroke-opacity:1;stroke-dasharray:none;display:inline"
       d="m 615.04314,2361.2148 20.62771,1.3417"
       id="path3074-6-5"
       inkscape:connector-curvature="0"
       sodipodi:nodetypes="cc" /><path
       style="color:#000000;fill:none;stroke:#00ff00;stroke-width:3;stroke-linecap:butt;stroke-linejoin:miter;stroke-miterlimit:4;stroke-opacity:1;stroke-dasharray:none;stroke-dashoffset:0;marker:none;visibility:visible;display:inline;overflow:visible;enable-background:accumulate"
       d="m 646.51544,2400.5693 c 0,0 12.90282,-30.6355 17.965,-40.4654 -3.37347,2.3568 -3.26613,2.1716 -8.06754,4.4285 7.86793,-1.967 25.02291,-7.9202 18.45866,3.9037 -6.56425,11.8239 -8.31314,25.367 10.19972,13.7383"
       id="path2993-1-8"
       inkscape:connector-curvature="0"
       sodipodi:nodetypes="ccczc" /><path
       id="path3070-8-1-3"
       style="fill:none;stroke:#00ff00;stroke-width:3;stroke-linecap:butt;stroke-linejoin:miter;stroke-miterlimit:4;stroke-opacity:1;stroke-dasharray:none;display:inline"
       d="m 708.07036,2370.6699 c 0,0 -0.80137,-11.095 -7.99442,-11.4547 -7.19305,-0.3596 -19.62833,16.5713 -13.60243,25.0571 12.11765,12.738 22.70064,-15.2727 26.84691,-23.7445 -7.63668,14.8336 -11.96997,38.1709 7.05336,21.4484 11.62762,-12.9744 14.21387,-20.6974 15.98338,-25.2718 -1.82052,4.4487 -1.8503,5.0666 -1.64205,5.6901 14.81333,18.8426 -2.07283,32.2027 -5.24627,19.6184"
       inkscape:connector-curvature="0"
       sodipodi:nodetypes="cscccccc" /><path
       id="path3028-7-4-9"
       style="fill:none;stroke:#00ff00;stroke-width:3;stroke-linecap:butt;stroke-linejoin:miter;stroke-miterlimit:4;stroke-opacity:1;stroke-dasharray:none;display:inline"
       d="m 769.81184,2368.8077 c 3.68076,-3.0468 7.97186,-10.5616 7.97186,-10.5616 -5.96062,14.6307 -13.23046,26.6122 -2.54667,28.8964 9.69091,2.0719 15.1779,-17.7914 19.29874,-28.5726 -8.99953,21.8546 -3.51623,35.2344 4.21643,22.8952 7.73265,-12.3392 9.64088,-28.0358 14.16193,-22.8504 1.44859,1.6614 2.80677,4.518 -5.41563,28.7168 7.94731,-24.0433 11.00745,-32.6702 19.49062,-28.118 10.42319,5.5933 -16.14782,35.2477 10.25579,24.9209 12.21557,-6.5002 32.48914,-19.2504 20.57245,-26.2958 -13.86859,-8.1994 -25.6799,48.4431 10.22872,21.4683"
       inkscape:connector-curvature="0"
       sodipodi:nodetypes="ccscsscscsc" /><path
       id="path3028-6-6-8-9"
       style="fill:none;stroke:#00ff00;stroke-width:3;stroke-linecap:butt;stroke-linejoin:miter;stroke-miterlimit:4;stroke-opacity:1;stroke-dasharray:none;display:inline"
       d="m 881.75409,2398.6898 c 0,0 13.86586,-34.6015 18.92804,-44.4314 -3.37347,2.3568 -2.70732,3.2321 -9.78237,7.2668 11.70746,-7.244 30.63651,-14.1162 19.58635,5.1567 -11.05017,19.273 1.81086,19.5156 9.53804,11.6106 4.93546,-6.1318 8.40907,-13.7979 13.51815,-24.3634 -8.358,15.8204 -15.51119,37.526 4.01977,22.0798 7.78605,-7.1255 15.49984,-17.9813 18.12006,-21.7505 -5.06218,9.8299 -18.92804,44.4314 -18.92804,44.4314 l 12.03769,-29.1752 c 10.53879,-24.394 29.24252,-22.5965 16.98312,1.8959 -12.2594,24.4925 52.2475,-8.4634 29.48438,-17.5761 -13.11891,-4.573 -29.38747,48.4018 11.52482,22.7035"
       inkscape:connector-curvature="0"
       sodipodi:nodetypes="cccscccccczcc" /><path
       id="path2993-1-2-9"
       style="color:#000000;fill:none;stroke:#d40000;stroke-width:3;stroke-linecap:butt;stroke-linejoin:miter;stroke-miterlimit:4;stroke-opacity:1;stroke-dasharray:none;stroke-dashoffset:0;marker:none;visibility:visible;display:inline;overflow:visible;enable-background:accumulate"
       d="m 196.09258,1879.8026 c -24.77834,13.0736 -16.36683,-9.9858 -13.8782,-20.8622 -2.42488,11.0866 -17.86701,32.7769 -30.22603,20.9814 8.36485,8.1896 19.77565,-0.7426 5.72677,-16.5273 -0.20825,-0.6235 -0.17847,-1.2414 1.64205,-5.6902 -1.76951,4.5744 -3.99802,10.3247 -17.70231,20.8891 -24.72584,14.6179 -14.20802,-28.4528 -3.83749,-20.3744 11.46796,8.9333 -15.42326,19.4756 -15.42326,19.4756 -5.56242,2.0853 -8.62527,1.7537 -9.55158,8.6188 1.6037,-10.6622 6.35512,-45.7449 6.35512,-45.7449 0,0 -4.75142,35.2233 -6.35512,45.7449 0.78569,-5.8808 3.98916,-6.5335 9.42761,-8.5356 -37.952526,20.1792 -28.23237,-29.3524 -6.69253,-13.8704"
       inkscape:connector-curvature="0"
       sodipodi:nodetypes="ccccccscccccc" /><path
       id="path3050-2-23"
       style="fill:none;stroke:#00ff00;stroke-width:3;stroke-linecap:butt;stroke-linejoin:miter;stroke-miterlimit:4;stroke-opacity:1;stroke-dasharray:none;display:inline"
       d="m 216.74498,1871.6759 c 0,0 0.19863,-11.0951 -6.99442,-11.4547 -7.19305,-0.3597 -18.62236,12.9026 -12.59646,21.3884 12.11765,12.738 19.70064,-11.2727 23.84691,-19.7446 -7.63668,14.8337 -9.01204,70.7379 -23.45089,52.3856 -6.15951,-7.829 24.50641,-39.6483 29.40499,-44.3224 12.4619,-11.8909 14.15659,-8.7484 1.90727,18.9751 6.68736,-16.5435 12.94415,-29.1264 21.77671,-25.2959 8.0921,3.5094 -16.06644,33.9288 6.83982,24.4147"
       inkscape:connector-curvature="0"
       sodipodi:nodetypes="csccsscsc" /><path
       id="path3050-2-23-0"
       style="fill:none;stroke:#00ff00;stroke-width:3;stroke-linecap:butt;stroke-linejoin:miter;stroke-miterlimit:4;stroke-opacity:1;stroke-dasharray:none;display:inline"
       d="m 210.17236,1948.3673 c 0,0 -0.13837,-9.803 -7.00763,-10.1465 -6.86926,-0.3433 -13.58159,11.1467 -9.27015,20.4519 11.57218,12.1626 16.05455,-11.7479 20.01417,-19.8371 -7.29292,14.1637 -8.60637,69.5429 -22.39527,52.0195 -5.88223,-7.4754 24.2171,-39.6306 28.40941,-44.8284 7.49457,-9.2921 13.87907,-7.4008 3.32933,16.7741 5.56621,-16.2884 11.52551,-24.959 19.96048,-21.3015 7.72785,3.3509 -13.34322,28.3963 8.53194,19.3119"
       inkscape:connector-curvature="0"
       sodipodi:nodetypes="csccsscsc" /><path
       id="path3050-2-23-0-7"
       style="fill:none;stroke:#00ff00;stroke-width:3;stroke-linecap:butt;stroke-linejoin:miter;stroke-miterlimit:4;stroke-opacity:1;stroke-dasharray:none;display:inline"
       d="m 193.07674,1956.0141 c -20.02155,16.8463 -13.35099,-7.1973 -10.86236,-18.0737 -2.42488,11.0866 -17.86701,32.7769 -30.22603,20.9815 8.36485,8.1895 19.77565,-0.7426 5.72677,-16.5274 -0.20825,-0.6235 -0.17847,-1.2414 1.64205,-5.6901 -1.76951,4.5744 -3.15966,12.5121 -17.70231,21.8891 -24.02508,15.4912 -17.35914,-28.5322 -6.61415,-20.959 12.05252,8.4948 -10.47331,20.4027 -10.47331,20.4027 -22.58985,13.2206 -13.10634,-24.9604 -8.44276,-49.522 -2.79815,16.478 -6.9409,36.8215 -9.3851,54.9905 1.5571,-9.3026 7.0475,-30.2451 -9.928894,-25.6741 -12.267506,3.3031 -8.878304,34.2848 11.197724,18.0936"
       inkscape:connector-curvature="0"
       sodipodi:nodetypes="cccccsscccsc" /><path
       style="color:#000000;fill:none;stroke:#ff0000;stroke-width:1px;stroke-linecap:butt;stroke-linejoin:miter;stroke-miterlimit:4;stroke-opacity:1;stroke-dasharray:none;stroke-dashoffset:0;marker:none;visibility:visible;display:inline;overflow:visible;enable-background:accumulate"
       d="m 358.24033,1567.9653 c 6.52874,-5.3318 9.70532,-9.4514 11.55348,-13.04"
       id="path3371"
       inkscape:connector-curvature="0"
       sodipodi:nodetypes="cc" /><path
       style="color:#000000;fill:none;stroke:#ff0000;stroke-width:1px;stroke-linecap:butt;stroke-linejoin:miter;stroke-miterlimit:4;stroke-opacity:1;stroke-dashoffset:0;marker:none;visibility:visible;display:inline;overflow:visible;enable-background:accumulate"
       d="m 471.5631,1534.3223 c 0,0.8457 -0.6857,1.5315 -1.53155,1.5315 -0.84586,0 -1.53155,-0.6857 -1.53155,-1.5315 0,-0.8459 0.6857,-1.5317 1.53155,-1.5317 0.84585,0 1.53155,0.6858 1.53155,1.5317 z"
       id="path3396"
       inkscape:connector-curvature="0" /><path
       inkscape:connector-curvature="0"
       id="path3416"
       d="m 558.67056,1545.8538 c -1.89835,1.0525 -2.62163,-0.6105 -2.62163,-1.4563 0,-0.8459 0.6857,-1.5317 1.53155,-1.5317 0.84585,0 1.55659,0.6862 1.53155,1.5317 -0.0752,2.5381 -4.00199,5.389 -7.70459,7.6443"
       style="color:#000000;fill:none;stroke:#ff0000;stroke-width:1px;stroke-linecap:butt;stroke-linejoin:miter;stroke-miterlimit:4;stroke-opacity:1;stroke-dashoffset:0;marker:none;visibility:visible;display:inline;overflow:visible;enable-background:accumulate"
       sodipodi:nodetypes="csssc" /><path
       style="color:#000000;fill:none;stroke:#ff0000;stroke-width:1px;stroke-linecap:butt;stroke-linejoin:miter;stroke-miterlimit:4;stroke-opacity:1;stroke-dashoffset:0;marker:none;visibility:visible;display:inline;overflow:visible;enable-background:accumulate"
       d="m 938.5631,1523.3223 c 0,0.8457 -0.6857,1.5315 -1.53155,1.5315 -0.84586,0 -1.53155,-0.6857 -1.53155,-1.5315 0,-0.8459 0.6857,-1.5317 1.53155,-1.5317 0.84585,0 1.53155,0.6858 1.53155,1.5317 z"
       id="path3418"
       inkscape:connector-curvature="0" /><path
       inkscape:connector-curvature="0"
       id="path3420"
       d="m 1026.857,1561.891 c 0,0.8457 -0.6857,1.5315 -1.5316,1.5315 -0.8458,0 -1.5315,-0.6857 -1.5315,-1.5315 0,-0.8459 0.6857,-1.5317 1.5315,-1.5317 0.8459,0 1.5316,0.6858 1.5316,1.5317 z"
       style="color:#000000;fill:none;stroke:#ff0000;stroke-width:1px;stroke-linecap:butt;stroke-linejoin:miter;stroke-miterlimit:4;stroke-opacity:1;stroke-dashoffset:0;marker:none;visibility:visible;display:inline;overflow:visible;enable-background:accumulate" /></g><g
     inkscape:groupmode="layer"
     id="layer1"
     inkscape:label="XX_001"
     sodipodi:insensitive="true"
     style="display:none"><path
       id="path3028-4-40"
       style="fill:none;stroke:#00ff00;stroke-width:3;stroke-linecap:butt;stroke-linejoin:miter;stroke-miterlimit:4;stroke-opacity:1;stroke-dasharray:none"
       d="m 392.79688,1847.7177 c 8.07974,-3.8048 6.61362,-16.6442 -4.47029,-12.915 -20.07608,6.7547 -32.4134,63.1621 13.48914,38.9273 0,0 27.70221,-12.9895 18.08153,-19.9726 -10.63857,-7.722 -30.05518,42.1662 9.388,17.6745"
       inkscape:connector-curvature="0"
       sodipodi:nodetypes="cscsc" /><path
       id="path3048-0-0"
       style="fill:none;stroke:#00ff00;stroke-width:3;stroke-linecap:butt;stroke-linejoin:miter;stroke-miterlimit:4;stroke-opacity:1;stroke-dasharray:none"
       d="m 447.3689,1858.1871 c 0.16017,-3.0569 -0.82786,-7.1965 -7.06924,-5.7799 -13.36031,3.0324 -17.87081,37.1163 8.41064,21.1418 7.77362,-4.439 10.56035,-9.9721 15.766,-20.4904 -3.47638,7.7797 -19.92161,32.7081 3.53825,25.1305"
       inkscape:connector-curvature="0"
       sodipodi:nodetypes="csccc" /><path
       style="fill:none;stroke:#00ff00;stroke-width:3;stroke-linecap:butt;stroke-linejoin:miter;stroke-miterlimit:4;stroke-opacity:1;stroke-dasharray:none"
       d="m 506.94644,1857.8515 c 16.05065,-10.8514 17.86622,-9.6386 5.07566,19.8622 7.66732,-18.3672 13.21042,-29.0066 22.00752,-25.0953 8.05961,3.5834 -15.5578,32.9762 4.18681,23.9131"
       id="path3050-2-232"
       inkscape:connector-curvature="0"
       sodipodi:nodetypes="ccsc" /><path
       id="path3072-7-4"
       style="fill:none;stroke:#00ff00;stroke-width:3;stroke-linecap:butt;stroke-linejoin:miter;stroke-miterlimit:4;stroke-opacity:1;stroke-dasharray:none"
       d="m 559.17732,1870.3245 c 0,0 30.07507,-10.6516 22.31136,-17.6615 -15.04135,-13.5809 -30.16056,46.1972 5.41287,18.6837 11.92288,-12.6201 13.2356,-16.939 15.04695,-21.497 -1.8612,4.4319 -0.60211,1.966 -0.39958,2.5913 17.06346,17.2487 -2.77971,34.5928 -8.66588,20.0088 10.24935,21.4543 30.39832,-21.9374 36.68376,-32.2604 -12.32293,27.9005 -20.43946,45.721 -2.76531,35.7315"
       inkscape:connector-curvature="0"
       sodipodi:nodetypes="cscccccc" /><path
       style="fill:none;stroke:#00ff00;stroke-width:3;stroke-linecap:butt;stroke-linejoin:miter;stroke-miterlimit:4;stroke-opacity:1;stroke-dasharray:none"
       d="m 615.16069,1850.5417 19.98093,-1.5644"
       id="path3074-6-0"
       inkscape:connector-curvature="0"
       sodipodi:nodetypes="cc" /><path
       style="color:#000000;fill:none;stroke:#00ff00;stroke-width:3;stroke-linecap:butt;stroke-linejoin:miter;stroke-miterlimit:4;stroke-opacity:1;stroke-dasharray:none;stroke-dashoffset:0;marker:none;visibility:visible;display:inline;overflow:visible;enable-background:accumulate"
       d="m 646.27115,1890.1829 c 0,0 13.18293,-30.5161 18.33494,-40.2992 -3.39492,2.3259 -3.28588,2.1416 -8.10777,4.3545 7.88562,-1.8949 25.09442,-7.6907 18.42213,4.0726 -6.67229,11.7633 -8.54517,25.2898 10.07344,13.8312"
       id="path2993-1-2"
       inkscape:connector-curvature="0"
       sodipodi:nodetypes="ccczc" /><path
       id="path3070-8-1-36"
       style="fill:none;stroke:#00ff00;stroke-width:3;stroke-linecap:butt;stroke-linejoin:miter;stroke-miterlimit:4;stroke-opacity:1;stroke-dasharray:none"
       d="m 708.09739,1860.8486 c 0,0 -0.6997,-11.1019 -7.88915,-11.5274 -7.18945,-0.4255 -19.77931,16.3908 -13.8314,24.9315 12.00045,12.8484 22.8396,-15.0642 27.0633,-23.4977 -7.77225,14.7631 -12.31914,38.0597 6.85658,21.5122 11.74599,-12.8673 14.40288,-20.5664 16.21422,-25.1244 -1.8612,4.4319 -1.89664,5.0495 -1.69411,5.6749 14.6401,18.9774 -2.36774,32.1823 -5.42577,19.5695"
       inkscape:connector-curvature="0"
       sodipodi:nodetypes="cscccccc" /><path
       id="path3028-7-4-61"
       style="fill:none;stroke:#00ff00;stroke-width:3;stroke-linecap:butt;stroke-linejoin:miter;stroke-miterlimit:4;stroke-opacity:1;stroke-dasharray:none"
       d="m 769.85334,1859.5521 c 3.70852,-3.013 8.06828,-10.4881 8.06828,-10.4881 -6.0944,14.5754 -13.4737,26.4899 -2.81128,28.8718 9.67152,2.1606 15.34025,-17.6516 19.55968,-28.3946 -9.19936,21.7712 -3.83886,35.2007 4.00651,22.9329 7.84537,-12.2678 9.89731,-27.9463 14.37067,-22.7197 1.43331,1.6746 2.76526,4.5435 -5.67847,28.666 8.16723,-23.9695 11.30627,-32.5681 19.74738,-27.9383 10.37151,5.6885 -16.47004,35.0983 10.02707,25.0138 12.2746,-6.388 32.66412,-18.952 20.81247,-26.1063 -13.79289,-8.3261 -26.1226,48.2059 10.03163,21.5612"
       inkscape:connector-curvature="0"
       sodipodi:nodetypes="ccscsscscsc" /><path
       id="path3028-6-6-8-3"
       style="fill:none;stroke:#00ff00;stroke-width:3;stroke-linecap:butt;stroke-linejoin:miter;stroke-miterlimit:4;stroke-opacity:1;stroke-dasharray:none"
       d="m 881.51715,1890.4585 c 0,0 14.18225,-34.4731 19.33427,-44.2562 -3.39492,2.3258 -2.73681,3.2071 -9.84853,7.1769 11.77333,-7.1365 30.76454,-13.835 19.53829,5.3359 -11.22626,19.1709 1.63201,19.5313 9.43128,11.6975 4.99142,-6.0864 8.53511,-13.7203 13.74077,-24.2386 -8.50258,15.7432 -15.85431,37.3824 3.81733,22.1157 7.851,-7.0538 15.66391,-17.8386 18.31855,-21.5836 -5.15201,9.7831 -19.33427,44.2562 -19.33427,44.2562 l 12.30445,-29.0637 c 10.76182,-24.2965 29.4483,-22.3277 16.96504,2.0514 -12.48325,24.3792 52.32277,-7.9845 29.64416,-17.3053 -13.07647,-4.693 -29.82964,48.1306 11.31641,22.8081"
       inkscape:connector-curvature="0"
       sodipodi:nodetypes="cccscccccczcc" /><path
       sodipodi:nodetypes="cscsc"
       inkscape:connector-curvature="0"
       d="m 392.79688,1977.7177 c 8.07974,-3.8048 6.61362,-16.6442 -4.47029,-12.9149 -20.07608,6.7546 -32.4134,63.162 13.48914,38.9273 0,0 27.70221,-12.9896 18.08153,-19.9727 -10.63857,-7.722 -30.05518,42.1662 9.388,17.6746"
       style="fill:none;stroke:#00ff00;stroke-width:3;stroke-linecap:round;stroke-linejoin:round;stroke-miterlimit:4;stroke-opacity:1;stroke-dasharray:none"
       id="path3122" /><path
       sodipodi:nodetypes="csccc"
       inkscape:connector-curvature="0"
       d="m 447.3689,1988.1871 c 0.16017,-3.0569 -0.82786,-7.1965 -7.06924,-5.7799 -13.36031,3.0324 -17.87081,37.1163 8.41064,21.1419 7.77362,-4.4391 10.56035,-9.9722 15.766,-20.4905 -3.47638,7.7798 -19.92161,32.7081 3.53825,25.1306"
       style="fill:none;stroke:#00ff00;stroke-width:3;stroke-linecap:round;stroke-linejoin:round;stroke-miterlimit:4;stroke-opacity:1;stroke-dasharray:none"
       id="path3124" /><path
       sodipodi:nodetypes="ccsc"
       inkscape:connector-curvature="0"
       id="path3126"
       d="m 506.94644,1987.8515 c 16.05065,-10.8514 17.86622,-9.6386 5.07566,19.8622 7.66732,-18.3672 13.21042,-29.0065 22.00752,-25.0953 8.05961,3.5834 -15.5578,32.9762 4.18681,23.9131"
       style="fill:none;stroke:#00ff00;stroke-width:3;stroke-linecap:round;stroke-linejoin:round;stroke-miterlimit:4;stroke-opacity:1;stroke-dasharray:none" /><path
       sodipodi:nodetypes="cscccccc"
       inkscape:connector-curvature="0"
       d="m 559.17732,2000.3246 c 0,0 30.07507,-10.6517 22.31136,-17.6616 -15.04135,-13.5808 -30.16056,46.1972 5.41287,18.6838 11.92288,-12.6202 13.2356,-16.9391 15.04695,-21.4971 -1.8612,4.4319 -0.60211,1.966 -0.39958,2.5914 17.06346,17.2487 -2.77971,34.5927 -8.66588,20.0087 10.24935,21.4543 30.39832,-21.9374 36.68376,-32.2604 -12.32293,27.9006 -20.43946,45.721 -2.76531,35.7315"
       style="fill:none;stroke:#00ff00;stroke-width:3;stroke-linecap:round;stroke-linejoin:round;stroke-miterlimit:4;stroke-opacity:1;stroke-dasharray:none"
       id="path3128" /><path
       sodipodi:nodetypes="cc"
       inkscape:connector-curvature="0"
       id="path3130"
       d="m 615.16069,1980.5418 19.98093,-1.5645"
       style="fill:none;stroke:#00ff00;stroke-width:3;stroke-linecap:round;stroke-linejoin:round;stroke-miterlimit:4;stroke-opacity:1;stroke-dasharray:none" /><path
       sodipodi:nodetypes="ccczc"
       inkscape:connector-curvature="0"
       id="path3132"
       d="m 646.27115,2020.1829 c 0,0 13.18293,-30.516 18.33494,-40.2991 -3.39492,2.3258 -3.28588,2.1415 -8.10777,4.3544 7.88562,-1.8948 25.09442,-7.6906 18.42213,4.0727 -6.67229,11.7632 -8.54517,25.2897 10.07344,13.8311"
       style="color:#000000;fill:none;stroke:#00ff00;stroke-width:3;stroke-linecap:round;stroke-linejoin:round;stroke-miterlimit:4;stroke-opacity:1;stroke-dasharray:none;stroke-dashoffset:0;marker:none;visibility:visible;display:inline;overflow:visible;enable-background:accumulate" /><path
       sodipodi:nodetypes="cscccccc"
       inkscape:connector-curvature="0"
       d="m 708.09739,1990.8487 c 0,0 -0.6997,-11.1019 -7.88915,-11.5275 -7.18945,-0.4255 -19.77931,16.3908 -13.8314,24.9315 12.00045,12.8484 22.8396,-15.0642 27.0633,-23.4977 -7.77225,14.7631 -12.31914,38.0597 6.85658,21.5122 11.74599,-12.8673 14.40288,-20.5663 16.21422,-25.1244 -1.8612,4.432 -1.89664,5.0496 -1.69411,5.6749 14.6401,18.9775 -2.36774,32.1824 -5.42577,19.5695"
       style="fill:none;stroke:#00ff00;stroke-width:3;stroke-linecap:round;stroke-linejoin:round;stroke-miterlimit:4;stroke-opacity:1;stroke-dasharray:none"
       id="path3134" /><path
       sodipodi:nodetypes="ccscsscscsc"
       inkscape:connector-curvature="0"
       d="m 769.85334,1989.5522 c 3.70852,-3.013 8.06828,-10.4882 8.06828,-10.4882 -6.0944,14.5755 -13.4737,26.4899 -2.81128,28.8718 9.67152,2.1606 15.34025,-17.6516 19.55968,-28.3945 -9.19936,21.7711 -3.83886,35.2006 4.00651,22.9328 7.84537,-12.2678 9.89731,-27.9463 14.37067,-22.7197 1.43331,1.6747 2.76526,4.5435 -5.67847,28.666 8.16723,-23.9695 11.30627,-32.568 19.74738,-27.9383 10.37151,5.6885 -16.47004,35.0983 10.02707,25.0139 12.2746,-6.3881 32.66412,-18.9521 20.81247,-26.1063 -13.79289,-8.3261 -26.1226,48.2058 10.03163,21.5611"
       style="fill:none;stroke:#00ff00;stroke-width:3;stroke-linecap:round;stroke-linejoin:round;stroke-miterlimit:4;stroke-opacity:1;stroke-dasharray:none"
       id="path3136" /><path
       sodipodi:nodetypes="cccscccccczcc"
       inkscape:connector-curvature="0"
       d="m 881.51715,2020.4585 c 0,0 14.18225,-34.4731 19.33427,-44.2562 -3.39492,2.3259 -2.73681,3.2071 -9.84853,7.1769 11.77333,-7.1365 30.76454,-13.835 19.53829,5.336 -11.22626,19.1709 1.63201,19.5313 9.43128,11.6974 4.99142,-6.0864 8.53511,-13.7203 13.74077,-24.2386 -8.50258,15.7432 -15.85431,37.3824 3.81733,22.1158 7.851,-7.0539 15.66391,-17.8386 18.31855,-21.5836 -5.15201,9.7831 -19.33427,44.2561 -19.33427,44.2561 l 12.30445,-29.0637 c 10.76182,-24.2964 29.4483,-22.3277 16.96504,2.0514 -12.48325,24.3792 52.32277,-7.9844 29.64416,-17.3053 -13.07647,-4.693 -29.82964,48.1306 11.31641,22.8082"
       style="fill:none;stroke:#00ff00;stroke-width:3;stroke-linecap:round;stroke-linejoin:round;stroke-miterlimit:4;stroke-opacity:1;stroke-dasharray:none"
       id="path3138" /><path
       sodipodi:type="arc"
       style="color:#000000;fill:none;stroke:#00ff00;stroke-width:4.53643894;stroke-linecap:round;stroke-linejoin:round;stroke-miterlimit:4;stroke-opacity:1;stroke-dasharray:none;stroke-dashoffset:0;marker:none;visibility:visible;display:inline;overflow:visible;enable-background:accumulate"
       id="path3140"
       sodipodi:cx="426.39417"
       sodipodi:cy="1081.5811"
       sodipodi:rx="5.2468519"
       sodipodi:ry="5.2468519"
       d="m 431.64102,1081.5811 a 5.2468519,5.2468519 0 1 1 -10.49371,0 5.2468519,5.2468519 0 1 1 10.49371,0 z"
       transform="matrix(0.65085561,0,0,0.65085561,191.87313,1268.9817)" /><path
       style="color:#000000;fill:none;stroke:#00ff00;stroke-width:3;stroke-linecap:round;stroke-linejoin:round;stroke-miterlimit:4;stroke-opacity:1;stroke-dasharray:none;stroke-dashoffset:0;marker:none;visibility:visible;display:inline;overflow:visible;enable-background:accumulate"
       d="m 548.94462,1985.4737 6.29623,-12.9422"
       id="path3159"
       inkscape:connector-curvature="0" /><path
       transform="matrix(0.65085561,0,0,0.65085561,661.87313,1261.9817)"
       d="m 431.64102,1081.5811 a 5.2468519,5.2468519 0 1 1 -10.49371,0 5.2468519,5.2468519 0 1 1 10.49371,0 z"
       sodipodi:ry="5.2468519"
       sodipodi:rx="5.2468519"
       sodipodi:cy="1081.5811"
       sodipodi:cx="426.39417"
       id="path3935"
       style="color:#000000;fill:none;stroke:#00ff00;stroke-width:4.53643894;stroke-linecap:round;stroke-linejoin:round;stroke-miterlimit:4;stroke-opacity:1;stroke-dasharray:none;stroke-dashoffset:0;marker:none;visibility:visible;display:inline;overflow:visible;enable-background:accumulate"
       sodipodi:type="arc" /><path
       id="path3937"
       style="fill:none;stroke:#000080;stroke-width:3;stroke-linecap:round;stroke-linejoin:round;stroke-miterlimit:4;stroke-opacity:1;stroke-dasharray:none"
       d="m 392.79688,2087.7177 c 8.07974,-3.8048 6.61362,-16.6442 -4.47029,-12.9149 -20.07608,6.7546 -32.4134,63.162 13.48914,38.9273 0,0 27.70221,-12.9896 18.08153,-19.9727 -10.63857,-7.722 -30.05518,42.1662 9.388,17.6746"
       inkscape:connector-curvature="0"
       sodipodi:nodetypes="cscsc" /><path
       id="path3939"
       style="fill:none;stroke:#000080;stroke-width:3;stroke-linecap:round;stroke-linejoin:round;stroke-miterlimit:4;stroke-opacity:1;stroke-dasharray:none"
       d="m 447.3689,2098.1871 c 0.16017,-3.0569 -0.82786,-7.1965 -7.06924,-5.7799 -13.36031,3.0324 -17.87081,37.1163 8.41064,21.1419 7.77362,-4.4391 10.56035,-9.9722 15.766,-20.4905 -3.47638,7.7798 -19.92161,32.7081 3.53825,25.1306"
       inkscape:connector-curvature="0"
       sodipodi:nodetypes="csccc" /><path
       style="fill:none;stroke:#000080;stroke-width:3;stroke-linecap:round;stroke-linejoin:round;stroke-miterlimit:4;stroke-opacity:1;stroke-dasharray:none"
       d="m 506.94644,2097.8515 c 16.05065,-10.8514 17.86622,-9.6386 5.07566,19.8622 7.66732,-18.3672 13.21042,-29.0065 22.00752,-25.0953 8.05961,3.5834 -15.5578,32.9762 4.18681,23.9131"
       id="path3941"
       inkscape:connector-curvature="0"
       sodipodi:nodetypes="ccsc" /><path
       id="path3943"
       style="fill:none;stroke:#000080;stroke-width:3;stroke-linecap:round;stroke-linejoin:round;stroke-miterlimit:4;stroke-opacity:1;stroke-dasharray:none"
       d="m 559.17732,2110.3246 c 0,0 30.07507,-10.6517 22.31136,-17.6616 -15.04135,-13.5808 -30.16056,46.1972 5.41287,18.6838 11.92288,-12.6202 13.2356,-16.9391 15.04695,-21.4971 -1.8612,4.4319 -0.60211,1.966 -0.39958,2.5914 17.06346,17.2487 -2.77971,34.5927 -8.66588,20.0087 10.24935,21.4543 30.39832,-21.9374 36.68376,-32.2604 -12.32293,27.9006 -20.43946,45.721 -2.76531,35.7315"
       inkscape:connector-curvature="0"
       sodipodi:nodetypes="cscccccc" /><path
       style="fill:none;stroke:#000080;stroke-width:3;stroke-linecap:round;stroke-linejoin:round;stroke-miterlimit:4;stroke-opacity:1;stroke-dasharray:none"
       d="m 615.16069,2090.5418 19.98093,-1.5645"
       id="path3945"
       inkscape:connector-curvature="0"
       sodipodi:nodetypes="cc" /><path
       style="color:#000000;fill:none;stroke:#000080;stroke-width:3;stroke-linecap:round;stroke-linejoin:round;stroke-miterlimit:4;stroke-opacity:1;stroke-dasharray:none;stroke-dashoffset:0;marker:none;visibility:visible;display:inline;overflow:visible;enable-background:accumulate"
       d="m 646.27115,2130.1829 c 0,0 13.18293,-30.516 18.33494,-40.2991 -3.39492,2.3258 -3.28588,2.1415 -8.10777,4.3544 7.88562,-1.8948 25.09442,-7.6906 18.42213,4.0727 -6.67229,11.7632 -8.54517,25.2897 10.07344,13.8311"
       id="path3947"
       inkscape:connector-curvature="0"
       sodipodi:nodetypes="ccczc" /><path
       id="path3949"
       style="fill:none;stroke:#000080;stroke-width:3;stroke-linecap:round;stroke-linejoin:round;stroke-miterlimit:4;stroke-opacity:1;stroke-dasharray:none"
       d="m 708.09739,2100.8487 c 0,0 -0.6997,-11.1019 -7.88915,-11.5275 -7.18945,-0.4255 -19.77931,16.3908 -13.8314,24.9315 12.00045,12.8484 22.8396,-15.0642 27.0633,-23.4977 -7.77225,14.7631 -12.31914,38.0597 6.85658,21.5122 11.74599,-12.8673 14.40288,-20.5663 16.21422,-25.1244 -1.8612,4.432 -1.89664,5.0496 -1.69411,5.6749 14.6401,18.9775 -2.36774,32.1824 -5.42577,19.5695"
       inkscape:connector-curvature="0"
       sodipodi:nodetypes="cscccccc" /><path
       id="path3953"
       style="fill:none;stroke:#000080;stroke-width:3;stroke-linecap:round;stroke-linejoin:round;stroke-miterlimit:4;stroke-opacity:1;stroke-dasharray:none"
       d="m 815.35713,2116.2778 c -15.6771,6.9252 -4.38616,-14.5446 6.18625,-42.42 -21.51655,56.9669 -36.59976,46.9505 -34.0063,29.5393 2.59347,-17.411 21.97126,-14.1734 20.38554,-0.034"
       inkscape:connector-curvature="0"
       sodipodi:nodetypes="cczc" /><path
       transform="matrix(0.65085561,0,0,0.65085561,191.87313,1378.9817)"
       d="m 431.64102,1081.5811 a 5.2468519,5.2468519 0 1 1 -10.49371,0 5.2468519,5.2468519 0 1 1 10.49371,0 z"
       sodipodi:ry="5.2468519"
       sodipodi:rx="5.2468519"
       sodipodi:cy="1081.5811"
       sodipodi:cx="426.39417"
       id="path3955"
       style="color:#000000;fill:none;stroke:#000080;stroke-width:4.53643894;stroke-linecap:round;stroke-linejoin:round;stroke-miterlimit:4;stroke-opacity:1;stroke-dasharray:none;stroke-dashoffset:0;marker:none;visibility:visible;display:inline;overflow:visible;enable-background:accumulate"
       sodipodi:type="arc" /><path
       inkscape:connector-curvature="0"
       id="path3957"
       d="m 548.94462,2095.4737 6.29623,-12.9422"
       style="color:#000000;fill:none;stroke:#000080;stroke-width:3;stroke-linecap:round;stroke-linejoin:round;stroke-miterlimit:4;stroke-opacity:1;stroke-dasharray:none;stroke-dashoffset:0;marker:none;visibility:visible;display:inline;overflow:visible;enable-background:accumulate" /><path
       sodipodi:nodetypes="cscccccc"
       inkscape:connector-curvature="0"
       d="m 816.31514,2116.3092 c 0,0 32.93725,-16.6363 25.17354,-23.6462 -15.04135,-13.5808 -30.16056,46.1972 5.41287,18.6838 11.92288,-12.6202 13.2356,-16.9391 15.04695,-21.4971 -1.8612,4.4319 -0.60211,1.966 -0.39958,2.5914 17.06346,17.2487 3.49365,31.8092 -9.44648,22.8709 20.91749,12.6075 31.17892,-11.7897 36.42357,-25.4953 -9.20055,21.9161 -7.37897,35.752 9.54694,22.3954"
       style="fill:none;stroke:#000080;stroke-width:3;stroke-linecap:round;stroke-linejoin:round;stroke-miterlimit:4;stroke-opacity:1;stroke-dasharray:none"
       id="path3961" /><path
       id="path3965"
       style="fill:none;stroke:#000080;stroke-width:3;stroke-linecap:round;stroke-linejoin:round;stroke-miterlimit:4;stroke-opacity:1;stroke-dasharray:none"
       d="m 919.86674,2103.0934 c 0,0 -0.6997,-11.1019 -7.88915,-11.5275 -7.18945,-0.4255 -18.28283,13.772 -12.33492,22.3127 12.00045,12.8484 21.34312,-12.4454 25.56682,-20.8789 -7.77225,14.7631 -17.57739,58.5041 -26.00811,51.7685 -16.19601,-12.9396 13.08256,-22.9891 29.09269,-41.2158 16.01013,-18.2267 21.41796,-12.3254 9.78663,13.9295 7.66732,-18.3672 13.21042,-29.0065 22.00752,-25.0953 8.05961,3.5834 -15.5578,32.9762 4.18681,23.9131"
       inkscape:connector-curvature="0"
       sodipodi:nodetypes="ccccszcsc" /><path
       id="path3990"
       style="fill:none;stroke:#000080;stroke-width:3;stroke-linecap:round;stroke-linejoin:round;stroke-miterlimit:4;stroke-opacity:1;stroke-dasharray:none"
       d="m 1620.8667,2103.0934 -7.8891,-11.5275 -12.3349,22.3127 25.5668,-20.8789 -26.0081,51.7685 29.0927,-41.2158 9.7866,13.9295 22.0075,-25.0953 4.1868,23.9131 m -147.9599,0.01 25.1736,-23.6462 5.4129,18.6838 15.0469,-21.4971 -0.3996,2.5914 -9.4465,22.8709 36.4236,-25.4953 9.547,22.3954 m -349.1284,-16.7384 6.2963,-12.9422 m -82.4318,0.4034 -3.415,3.4149 -3.4149,-3.4149 3.4149,-3.415 z m 342.548,33.3429 6.1863,-42.42 -34.0063,29.5393 20.3855,-0.034 m -99.8252,-2.5144 -7.8892,-11.5275 -13.8314,24.9315 27.0633,-23.4977 6.8566,21.5122 16.2142,-25.1244 -1.6941,5.6749 -5.4257,19.5695 m -83.1199,17.7957 18.3349,-40.2991 -8.1078,4.3544 18.4222,4.0727 10.0734,13.8311 m -69.8332,-21.6002 19.9809,-1.5645 m -75.9643,21.3473 22.3114,-17.6616 5.4129,18.6838 15.0469,-21.4971 -0.3996,2.5914 -8.6659,20.0087 36.6838,-32.2604 -2.7653,35.7315 m -119.8551,-18.0694 5.0757,19.8622 22.0075,-25.0953 4.1868,23.9131 m -90.8475,-18.3444 -7.0692,-5.7799 8.4106,21.1419 15.766,-20.4905 3.5382,25.1306 m -75.2176,-30.4715 -4.4703,-12.9149 13.4891,38.9273 18.0816,-19.9727 9.388,17.6746"
       inkscape:connector-curvature="0"
       sodipodi:nodetypes="ccccccccccccccccccccccccccccccccccccccccccccccccccccccccccccccccc" /><path
       sodipodi:nodetypes="caaaaaaaccaaaaaacccaaaaacaaccaaaaaaccaaaccccaaaaaaccaaccaaaccaaac"
       inkscape:connector-curvature="0"
       d="m 1620.8667,2193.0934 c 0,0 -3.2382,-11.7489 -7.8891,-11.5275 -8.4888,0.4042 -18.8594,16.8672 -12.3349,22.3127 8.4474,7.0504 16.982,-27.7613 25.5668,-20.8789 15.0672,12.0794 -42.5707,41.838 -26.0081,51.7685 14.4227,8.6474 12.2763,-41.2342 29.0927,-41.2158 5.6746,0.01 4.1202,13.6247 9.7866,13.9295 11.11,0.5976 11.2944,-28.0984 22.0075,-25.0953 7.7919,2.1842 4.1868,23.9131 4.1868,23.9131 m -147.9599,0.01 c 0,0 14.07,-26.6875 25.1736,-23.6462 6.2537,1.7129 -0.9838,17.6229 5.4129,18.6838 8.6288,1.4311 6.9302,-24.7564 15.0469,-21.4971 0.8111,0.3257 -0.1645,1.7496 -0.3996,2.5914 -2.2187,7.9443 -15.8814,17.7108 -9.4465,22.8709 11.5618,9.2713 22.1749,-29.5704 36.4236,-25.4953 7.8023,2.2315 9.547,22.3954 9.547,22.3954 m -349.1284,-16.7384 6.2963,-12.9422 m -82.4318,0.4034 c 0,1.6098 -1.8052,3.4149 -3.415,3.4149 -1.6098,0 -3.4149,-1.8051 -3.4149,-3.4149 0,-1.6098 1.8051,-3.415 3.4149,-3.415 1.6098,0 3.415,1.8052 3.415,3.415 z m 342.548,33.3429 c 0,0 18.7252,-35.5668 6.1863,-42.42 -13.1753,-7.2011 -39.2737,15.4788 -34.0063,29.5393 2.3839,6.3633 20.3855,-0.034 20.3855,-0.034 m -99.8252,-2.5144 c 0,0 -3.2381,-11.7455 -7.8892,-11.5275 -9.4933,0.4449 -21.2143,18.9471 -13.8314,24.9315 9.2809,7.5229 15.5608,-26.726 27.0633,-23.4977 7.2462,2.0337 -0.6038,20.5196 6.8566,21.5122 9.8803,1.3146 7.1609,-29.294 16.2142,-25.1244 1.7931,0.8258 -1.148,3.7778 -1.6941,5.6749 -1.8725,6.5051 -5.4257,19.5695 -5.4257,19.5695 m -83.1199,17.7957 c 0,0 29.1084,-30.2129 18.3349,-40.2991 -2.2395,-2.0966 -8.5287,1.3157 -8.1078,4.3544 0.8629,6.2295 13.1598,0.6291 18.4222,4.0727 4.7725,3.123 10.0734,13.8311 10.0734,13.8311 m -69.8332,-21.6002 19.9809,-1.5645 m -75.9643,21.3473 c 0,0 13.2771,-20.5516 22.3114,-17.6616 6.1757,1.9756 -0.9838,17.6229 5.4129,18.6838 8.6288,1.4311 6.9302,-24.7564 15.0469,-21.4971 0.8111,0.3257 -0.1573,1.7516 -0.3996,2.5914 -2.0146,6.9835 -14.5427,15.732 -8.6659,20.0087 13.1664,9.5815 22.1171,-39.5384 36.6838,-32.2604 10.6865,5.3393 -2.7653,35.7315 -2.7653,35.7315 m -119.8551,-18.0694 c 0,0 -1.5702,18.2719 5.0757,19.8622 10.8206,2.5893 11.2944,-28.0984 22.0075,-25.0953 7.7919,2.1842 4.1868,23.9131 4.1868,23.9131 m -90.8475,-18.3444 c 0,0 -4.6134,-7.5781 -7.0692,-5.7799 -6.1195,4.4807 0.8989,20.0941 8.4106,21.1419 8.5353,1.1906 7.4332,-22.6891 15.766,-20.4905 8.1796,2.1582 3.5382,25.1306 3.5382,25.1306 m -75.2176,-30.4715 c 0,0 -8.775,-11.4241 -4.4703,-12.9149 12.9765,-4.4941 0.033,36.1844 13.4891,38.9273 8.7996,1.7937 9.1697,-21.0811 18.0816,-19.9727 6.62,0.8234 9.388,17.6746 9.388,17.6746"
       style="fill:none;stroke:#000080;stroke-width:3;stroke-linecap:round;stroke-linejoin:round;stroke-miterlimit:4;stroke-opacity:1;stroke-dasharray:none"
       id="path3996" /><path
       sodipodi:nodetypes="cscsc"
       inkscape:connector-curvature="0"
       d="m 411.79688,2299.7177 c 8.07974,-3.8048 6.61362,-16.6442 -4.47029,-12.9149 -20.07608,6.7546 -32.4134,63.162 13.48914,38.9273 0,0 27.70221,-12.9896 18.08153,-19.9727 -10.63857,-7.722 -30.05518,42.1662 9.388,17.6746"
       style="fill:none;stroke:#000080;stroke-width:3;stroke-linecap:round;stroke-linejoin:round;stroke-miterlimit:4;stroke-opacity:1;stroke-dasharray:none"
       id="path3998" /><path
       sodipodi:nodetypes="csccc"
       inkscape:connector-curvature="0"
       d="m 466.3689,2310.1871 c 0.16017,-3.0569 -0.82786,-7.1965 -7.06924,-5.7799 -13.36031,3.0324 -17.87081,37.1163 8.41064,21.1419 7.77362,-4.4391 10.56035,-9.9722 15.766,-20.4905 -3.47638,7.7798 -19.92161,32.7081 3.53825,25.1306"
       style="fill:none;stroke:#000080;stroke-width:3;stroke-linecap:round;stroke-linejoin:round;stroke-miterlimit:4;stroke-opacity:1;stroke-dasharray:none"
       id="path4000" /><path
       sodipodi:nodetypes="ccsc"
       inkscape:connector-curvature="0"
       id="path4002"
       d="m 507.41416,2310.6578 c 16.05065,-10.8514 17.86622,-9.6386 5.07566,19.8622 7.66732,-18.3672 13.21042,-29.0065 22.00752,-25.0953 8.05961,3.5834 -15.5578,32.9762 4.18681,23.9131"
       style="fill:none;stroke:#000080;stroke-width:3;stroke-linecap:round;stroke-linejoin:round;stroke-miterlimit:4;stroke-opacity:1;stroke-dasharray:none" /><path
       sodipodi:nodetypes="cszccccc"
       inkscape:connector-curvature="0"
       d="m 548.41118,2328.1711 c 0,0 28.43805,-17.4336 20.67434,-24.4435 -15.04135,-13.5808 -22.60255,39.9687 1.20338,19.8531 23.80593,-20.1157 18.84825,-17.173 20.6596,-21.731 -1.8612,4.4319 -0.60211,1.966 -0.39958,2.5914 17.06346,17.2487 -2.77971,34.5927 -8.66588,20.0087 10.24935,21.4543 32.2692,-21.4697 36.91762,-34.1313 -12.32293,27.9006 -20.67332,47.5919 -2.99917,37.6024"
       style="fill:none;stroke:#000080;stroke-width:3;stroke-linecap:round;stroke-linejoin:round;stroke-miterlimit:4;stroke-opacity:1;stroke-dasharray:none"
       id="path4004" /><path
       sodipodi:nodetypes="cc"
       inkscape:connector-curvature="0"
       id="path4006"
       d="m 606.04014,2297.9693 19.98093,-1.5645"
       style="fill:none;stroke:#000080;stroke-width:3;stroke-linecap:round;stroke-linejoin:round;stroke-miterlimit:4;stroke-opacity:1;stroke-dasharray:none" /><path
       sodipodi:nodetypes="ccczc"
       inkscape:connector-curvature="0"
       id="path4008"
       d="m 637.27115,2341.1829 c 0,0 13.18293,-30.516 18.33494,-40.2991 -3.39492,2.3258 -3.28588,2.1415 -8.10777,4.3544 7.88562,-1.8948 27.91205,-7.0868 21.23976,4.6765 -6.67229,11.7632 -11.3628,24.6859 7.25581,13.2273"
       style="color:#000000;fill:none;stroke:#000080;stroke-width:3;stroke-linecap:round;stroke-linejoin:round;stroke-miterlimit:4;stroke-opacity:1;stroke-dasharray:none;stroke-dashoffset:0;marker:none;visibility:visible;display:inline;overflow:visible;enable-background:accumulate" /><path
       sodipodi:nodetypes="csccsccc"
       inkscape:connector-curvature="0"
       d="m 697.32264,2312.3427 c 0,0 1.07505,-11.5959 -6.1144,-12.0215 -7.18945,-0.4255 -19.77931,16.3908 -13.8314,24.9315 12.00045,12.8484 20.62574,-14.8629 24.84944,-23.2964 -7.77225,14.7631 -5.38432,37.3267 6.85658,21.5122 11.72203,-15.1442 14.40288,-20.5663 16.21422,-25.1244 -1.8612,4.432 -1.89664,5.0496 -1.69411,5.6749 23.89804,10.9271 6.68894,32.9874 -4.21821,22.5884"
       style="fill:none;stroke:#000080;stroke-width:3;stroke-linecap:round;stroke-linejoin:round;stroke-miterlimit:4;stroke-opacity:1;stroke-dasharray:none"
       id="path4010" /><path
       sodipodi:type="arc"
       style="color:#000000;fill:none;stroke:#000080;stroke-width:4.53643894;stroke-linecap:round;stroke-linejoin:round;stroke-miterlimit:4;stroke-opacity:1;stroke-dasharray:none;stroke-dashoffset:0;marker:none;visibility:visible;display:inline;overflow:visible;enable-background:accumulate"
       id="path4014"
       sodipodi:cx="426.39417"
       sodipodi:cy="1081.5811"
       sodipodi:rx="5.2468519"
       sodipodi:ry="5.2468519"
       d="m 431.64102,1081.5811 a 5.2468519,5.2468519 0 1 1 -10.49371,0 5.2468519,5.2468519 0 1 1 10.49371,0 z"
       transform="matrix(0.65085561,0,0,0.65085561,210.87313,1590.9817)" /><path
       style="color:#000000;fill:none;stroke:#000080;stroke-width:3;stroke-linecap:round;stroke-linejoin:round;stroke-miterlimit:4;stroke-opacity:1;stroke-dasharray:none;stroke-dashoffset:0;marker:none;visibility:visible;display:inline;overflow:visible;enable-background:accumulate"
       d="m 544.94462,2307.4737 6.29623,-12.9422"
       id="path4016"
       inkscape:connector-curvature="0" /><path
       id="path4018"
       style="fill:none;stroke:#000080;stroke-width:3;stroke-linecap:round;stroke-linejoin:round;stroke-miterlimit:4;stroke-opacity:1;stroke-dasharray:none"
       d="m 874.07295,2322.2121 c -16.92591,13.3566 -18.74749,-0.4793 -9.54694,-22.3954 -5.24465,13.7056 -15.50608,38.1028 -36.42357,25.4953 12.94013,8.9383 26.50994,-5.6222 9.44648,-22.8709 -0.20253,-0.6254 -1.46162,1.8405 0.39958,-2.5914 -1.81135,4.558 -3.12407,8.8769 -15.04695,21.4971 -35.57343,27.5134 -20.45422,-32.2646 -5.41287,-18.6838 7.76371,7.0099 -9.59836,17.9146 -24.65254,24.6305 -16.04717,7.1589 -3.48565,-15.388 5.70724,-42.4357 -18.2057,58.3464 -34.83362,47.5493 -32.07497,31.4706 2.86608,-16.7047 21.97126,-16.1047 20.38554,-1.9653"
       inkscape:connector-curvature="0"
       sodipodi:nodetypes="ccccccsscsc" /><path
       sodipodi:nodetypes="ccccszcsc"
       inkscape:connector-curvature="0"
       d="m 894.13198,2313.0934 c 0,0 -0.64097,-11.1019 -7.2269,-11.5275 -6.58593,-0.4255 -16.74807,13.772 -11.29946,22.3127 10.99307,12.8484 19.55147,-12.4454 23.42061,-20.8789 -7.11981,14.7631 -15.52445,66.5877 -28.87713,56.8208 -15.88935,-11.6225 17.03662,-28.0414 31.70277,-46.2681 14.66616,-18.2267 19.62002,-12.3254 8.96509,13.9295 7.02368,-18.3672 12.10147,-29.0065 20.16009,-25.0953 7.38304,3.5834 -14.2518,32.9762 3.83535,23.9131"
       style="fill:none;stroke:#000080;stroke-width:3;stroke-linecap:round;stroke-linejoin:round;stroke-miterlimit:4;stroke-opacity:1;stroke-dasharray:none"
       id="path4020" /><path
       transform="matrix(0.65085561,0,0,0.65085561,588.87313,1586.9817)"
       d="m 431.64102,1081.5811 a 5.2468519,5.2468519 0 1 1 -10.49371,0 5.2468519,5.2468519 0 1 1 10.49371,0 z"
       sodipodi:ry="5.2468519"
       sodipodi:rx="5.2468519"
       sodipodi:cy="1081.5811"
       sodipodi:cx="426.39417"
       id="path4022"
       style="color:#000000;fill:none;stroke:#000080;stroke-width:4.53643894;stroke-linecap:round;stroke-linejoin:round;stroke-miterlimit:4;stroke-opacity:1;stroke-dasharray:none;stroke-dashoffset:0;marker:none;visibility:visible;display:inline;overflow:visible;enable-background:accumulate"
       sodipodi:type="arc" /><path
       id="path4025"
       style="fill:none;stroke:#008000;stroke-width:3;stroke-linecap:round;stroke-linejoin:round;stroke-miterlimit:4;stroke-opacity:1;stroke-dasharray:none"
       d="m 411.79688,2439.7177 c 8.07974,-3.8048 6.61362,-16.6442 -4.47029,-12.9149 -20.07608,6.7546 -32.4134,63.162 13.48914,38.9273 0,0 27.70221,-12.9896 18.08153,-19.9727 -10.63857,-7.722 -30.05518,42.1662 9.388,17.6746"
       inkscape:connector-curvature="0"
       sodipodi:nodetypes="cscsc" /><path
       id="path4027"
       style="fill:none;stroke:#008000;stroke-width:3;stroke-linecap:round;stroke-linejoin:round;stroke-miterlimit:4;stroke-opacity:1;stroke-dasharray:none"
       d="m 466.3689,2450.1871 c 0.16017,-3.0569 -0.82786,-7.1965 -7.06924,-5.7799 -13.36031,3.0324 -17.87081,37.1163 8.41064,21.1419 7.77362,-4.4391 10.56035,-9.9722 15.766,-20.4905 -3.47638,7.7798 -19.92161,32.7081 3.53825,25.1306"
       inkscape:connector-curvature="0"
       sodipodi:nodetypes="csccc" /><path
       style="fill:none;stroke:#008000;stroke-width:3;stroke-linecap:round;stroke-linejoin:round;stroke-miterlimit:4;stroke-opacity:1;stroke-dasharray:none"
       d="m 507.41416,2450.6578 c 16.05065,-10.8514 17.86622,-9.6386 5.07566,19.8622 7.66732,-18.3672 13.21042,-29.0065 22.00752,-25.0953 8.05961,3.5834 -15.5578,32.9762 4.18681,23.9131"
       id="path4029"
       inkscape:connector-curvature="0"
       sodipodi:nodetypes="ccsc" /><path
       id="path4031"
       style="fill:none;stroke:#008000;stroke-width:3;stroke-linecap:round;stroke-linejoin:round;stroke-miterlimit:4;stroke-opacity:1;stroke-dasharray:none"
       d="m 548.41118,2468.1711 c 0,0 28.43805,-17.4336 20.67434,-24.4435 -15.04135,-13.5808 -22.60255,39.9687 1.20338,19.8531 23.80593,-20.1157 18.84825,-17.173 20.6596,-21.731 -1.8612,4.4319 -0.60211,1.966 -0.39958,2.5914 17.06346,17.2487 -2.77971,34.5927 -8.66588,20.0087 10.24935,21.4543 32.2692,-21.4697 36.91762,-34.1313 -12.32293,27.9006 -20.67332,47.5919 -2.99917,37.6024"
       inkscape:connector-curvature="0"
       sodipodi:nodetypes="cszccccc" /><path
       style="fill:none;stroke:#008000;stroke-width:3;stroke-linecap:round;stroke-linejoin:round;stroke-miterlimit:4;stroke-opacity:1;stroke-dasharray:none"
       d="m 606.04014,2437.9693 19.98093,-1.5645"
       id="path4033"
       inkscape:connector-curvature="0"
       sodipodi:nodetypes="cc" /><path
       style="color:#000000;fill:none;stroke:#008000;stroke-width:3;stroke-linecap:round;stroke-linejoin:round;stroke-miterlimit:4;stroke-opacity:1;stroke-dasharray:none;stroke-dashoffset:0;marker:none;visibility:visible;display:inline;overflow:visible;enable-background:accumulate"
       d="m 637.27115,2481.1829 c 0,0 13.18293,-30.516 18.33494,-40.2991 -3.39492,2.3258 -3.28588,2.1415 -8.10777,4.3544 7.88562,-1.8948 27.91205,-7.0868 21.23976,4.6765 -6.67229,11.7632 -11.3628,24.6859 7.25581,13.2273"
       id="path4035"
       inkscape:connector-curvature="0"
       sodipodi:nodetypes="ccczc" /><path
       id="path4037"
       style="fill:none;stroke:#008000;stroke-width:3;stroke-linecap:round;stroke-linejoin:round;stroke-miterlimit:4;stroke-opacity:1;stroke-dasharray:none"
       d="m 697.32264,2452.3427 c 0,0 1.07505,-11.5959 -6.1144,-12.0215 -7.18945,-0.4255 -19.77931,16.3908 -13.8314,24.9315 12.00045,12.8484 20.62574,-14.8629 24.84944,-23.2964 -7.77225,14.7631 -5.38432,37.3267 6.85658,21.5122 11.72203,-15.1442 14.40288,-20.5663 16.21422,-25.1244 -1.8612,4.432 -1.89664,5.0496 -1.69411,5.6749 23.89804,10.9271 6.68894,32.9874 -4.21821,22.5884"
       inkscape:connector-curvature="0"
       sodipodi:nodetypes="csccsccc" /><path
       transform="matrix(0.65085561,0,0,0.65085561,210.87313,1730.9817)"
       d="m 431.64102,1081.5811 a 5.2468519,5.2468519 0 1 1 -10.49371,0 5.2468519,5.2468519 0 1 1 10.49371,0 z"
       sodipodi:ry="5.2468519"
       sodipodi:rx="5.2468519"
       sodipodi:cy="1081.5811"
       sodipodi:cx="426.39417"
       id="path4039"
       style="color:#000000;fill:none;stroke:#008000;stroke-width:4.53643894;stroke-linecap:round;stroke-linejoin:round;stroke-miterlimit:4;stroke-opacity:1;stroke-dasharray:none;stroke-dashoffset:0;marker:none;visibility:visible;display:inline;overflow:visible;enable-background:accumulate"
       sodipodi:type="arc" /><path
       inkscape:connector-curvature="0"
       id="path4041"
       d="m 544.94462,2447.4737 6.29623,-12.9422"
       style="color:#000000;fill:none;stroke:#008000;stroke-width:3;stroke-linecap:round;stroke-linejoin:round;stroke-miterlimit:4;stroke-opacity:1;stroke-dasharray:none;stroke-dashoffset:0;marker:none;visibility:visible;display:inline;overflow:visible;enable-background:accumulate" /><path
       sodipodi:nodetypes="ccccccsscsc"
       inkscape:connector-curvature="0"
       d="m 874.07295,2462.2121 c -16.92591,13.3566 -18.74749,-0.4793 -9.54694,-22.3954 -5.24465,13.7056 -15.50608,38.1028 -36.42357,25.4953 12.94013,8.9383 26.50994,-5.6222 9.44648,-22.8709 -0.20253,-0.6254 -1.46162,1.8405 0.39958,-2.5914 -1.81135,4.558 -3.12407,8.8769 -15.04695,21.4971 -35.57343,27.5134 -20.45422,-32.2646 -5.41287,-18.6838 7.76371,7.0099 -9.59836,17.9146 -24.65254,24.6305 -16.04717,7.1589 -3.48565,-15.388 5.70724,-42.4357 -18.2057,58.3464 -34.83362,47.5493 -32.07497,31.4706 2.86608,-16.7047 21.97126,-16.1047 20.38554,-1.9653"
       style="fill:none;stroke:#008000;stroke-width:3;stroke-linecap:round;stroke-linejoin:round;stroke-miterlimit:4;stroke-opacity:1;stroke-dasharray:none"
       id="path4043" /><path
       id="path4045"
       style="fill:none;stroke:#008000;stroke-width:3;stroke-linecap:round;stroke-linejoin:round;stroke-miterlimit:4;stroke-opacity:1;stroke-dasharray:none"
       d="m 894.13198,2453.0934 c 0,0 -0.64097,-11.1019 -7.2269,-11.5275 -6.58593,-0.4255 -16.74807,13.772 -11.29946,22.3127 10.99307,12.8484 19.55147,-12.4454 23.42061,-20.8789 -7.11981,14.7631 -15.52445,66.5877 -28.87713,56.8208 -15.88935,-11.6225 17.03662,-28.0414 31.70277,-46.2681 14.66616,-18.2267 19.62002,-12.3254 8.96509,13.9295 7.02368,-18.3672 12.10147,-29.0065 20.16009,-25.0953 7.38304,3.5834 -14.2518,32.9762 3.83535,23.9131"
       inkscape:connector-curvature="0"
       sodipodi:nodetypes="ccccszcsc" /><path
       sodipodi:type="arc"
       style="color:#000000;fill:none;stroke:#008000;stroke-width:4.53643894;stroke-linecap:round;stroke-linejoin:round;stroke-miterlimit:4;stroke-opacity:1;stroke-dasharray:none;stroke-dashoffset:0;marker:none;visibility:visible;display:inline;overflow:visible;enable-background:accumulate"
       id="path4047"
       sodipodi:cx="426.39417"
       sodipodi:cy="1081.5811"
       sodipodi:rx="5.2468519"
       sodipodi:ry="5.2468519"
       d="m 431.64102,1081.5811 a 5.2468519,5.2468519 0 1 1 -10.49371,0 5.2468519,5.2468519 0 1 1 10.49371,0 z"
       transform="matrix(0.65085561,0,0,0.65085561,588.87313,1726.9817)" /><path
       sodipodi:nodetypes="cscsc"
       inkscape:connector-curvature="0"
       d="m 1152.2569,2439.7177 c 6.7735,-3.8048 5.5444,-16.6442 -3.7476,-12.9149 -16.8305,6.7546 -27.1733,63.162 11.3084,38.9273 0,0 23.2238,-12.9896 15.1585,-19.9727 -8.9188,-7.722 -25.1964,42.1662 7.8703,17.6746"
       style="fill:none;stroke:#008000;stroke-width:3;stroke-linecap:round;stroke-linejoin:round;stroke-miterlimit:4;stroke-opacity:1;stroke-dasharray:none"
       id="path4074" /><path
       sodipodi:nodetypes="csccc"
       inkscape:connector-curvature="0"
       d="m 1198.0066,2450.1871 c 0.1343,-3.0569 -0.694,-7.1965 -5.9264,-5.7799 -11.2005,3.0324 -14.9818,37.1163 7.051,21.1419 6.5169,-4.4391 8.853,-9.9722 13.2172,-20.4905 -2.9144,7.7798 -16.701,32.7081 2.9662,25.1306"
       style="fill:none;stroke:#008000;stroke-width:3;stroke-linecap:round;stroke-linejoin:round;stroke-miterlimit:4;stroke-opacity:1;stroke-dasharray:none"
       id="path4076" /><path
       sodipodi:nodetypes="ccsc"
       inkscape:connector-curvature="0"
       id="path4078"
       d="m 1232.4164,2450.6578 c 13.4558,-10.8514 14.9779,-9.6386 4.255,19.8622 6.4278,-18.3672 11.0748,-29.0065 18.4497,-25.0953 6.7568,3.5834 -13.0426,32.9762 3.5101,23.9131"
       style="fill:none;stroke:#008000;stroke-width:3;stroke-linecap:round;stroke-linejoin:round;stroke-miterlimit:4;stroke-opacity:1;stroke-dasharray:none" /><path
       sodipodi:nodetypes="cszccccc"
       inkscape:connector-curvature="0"
       d="m 1266.7857,2468.1711 c 0,0 23.8406,-17.4336 17.332,-24.4435 -12.6097,-13.5808 -18.9485,39.9687 1.0088,19.8531 19.9574,-20.1157 15.8013,-17.173 17.3197,-21.731 -1.5603,4.4319 -0.5047,1.966 -0.335,2.5914 14.305,17.2487 -2.3303,34.5927 -7.2649,20.0087 8.5924,21.4543 27.0524,-21.4697 30.9494,-34.1313 -10.3308,27.9006 -17.3312,47.5919 -2.5143,37.6024"
       style="fill:none;stroke:#008000;stroke-width:3;stroke-linecap:round;stroke-linejoin:round;stroke-miterlimit:4;stroke-opacity:1;stroke-dasharray:none"
       id="path4081" /><path
       sodipodi:nodetypes="cc"
       inkscape:connector-curvature="0"
       id="path4084"
       d="m 1315.0981,2437.9693 16.7508,-1.5645"
       style="fill:none;stroke:#008000;stroke-width:3;stroke-linecap:round;stroke-linejoin:round;stroke-miterlimit:4;stroke-opacity:1;stroke-dasharray:none" /><path
       sodipodi:nodetypes="ccczc"
       inkscape:connector-curvature="0"
       id="path4086"
       d="m 1341.2802,2481.1829 c 0,0 11.0517,-30.516 15.3708,-40.2991 -2.846,2.3258 -2.7546,2.1415 -6.797,4.3544 6.6108,-1.8948 23.3997,-7.0868 17.8061,4.6765 -5.5936,11.7632 -9.5259,24.6859 6.0828,13.2273"
       style="color:#000000;fill:none;stroke:#008000;stroke-width:3;stroke-linecap:round;stroke-linejoin:round;stroke-miterlimit:4;stroke-opacity:1;stroke-dasharray:none;stroke-dashoffset:0;marker:none;visibility:visible;display:inline;overflow:visible;enable-background:accumulate" /><path
       sodipodi:nodetypes="csccsccc"
       inkscape:connector-curvature="0"
       d="m 1391.6235,2452.3427 c 0,0 0.9013,-11.5959 -5.1259,-12.0215 -6.0272,-0.4255 -16.5817,16.3908 -11.5954,24.9315 10.0605,12.8484 17.2914,-14.8629 20.8323,-23.2964 -6.5158,14.7631 -4.5139,37.3267 5.7481,21.5122 9.827,-15.1442 12.0744,-20.5663 13.5929,-25.1244 -1.5603,4.432 -1.59,5.0496 -1.4202,5.6749 20.0346,10.9271 5.6076,32.9874 -3.5362,22.5884"
       style="fill:none;stroke:#008000;stroke-width:3;stroke-linecap:round;stroke-linejoin:round;stroke-miterlimit:4;stroke-opacity:1;stroke-dasharray:none"
       id="path4088" /><path
       sodipodi:type="arc"
       style="color:#000000;fill:none;stroke:#008000;stroke-width:4.95456934;stroke-linecap:round;stroke-linejoin:round;stroke-miterlimit:4;stroke-opacity:1;stroke-dasharray:none;stroke-dashoffset:0;marker:none;visibility:visible;display:inline;overflow:visible;enable-background:accumulate"
       id="path4090"
       sodipodi:cx="426.39417"
       sodipodi:cy="1081.5811"
       sodipodi:rx="5.2468519"
       sodipodi:ry="5.2468519"
       d="m 431.64102,1081.5811 a 5.2468519,5.2468519 0 1 1 -10.49371,0 5.2468519,5.2468519 0 1 1 10.49371,0 z"
       transform="matrix(0.54563594,0,0,0.65085561,983.81522,1730.9817)" /><path
       style="color:#000000;fill:none;stroke:#008000;stroke-width:3;stroke-linecap:round;stroke-linejoin:round;stroke-miterlimit:4;stroke-opacity:1;stroke-dasharray:none;stroke-dashoffset:0;marker:none;visibility:visible;display:inline;overflow:visible;enable-background:accumulate"
       d="m 1263.8795,2447.4737 5.2784,-12.9422"
       id="path4092"
       inkscape:connector-curvature="0" /><path
       id="path4094"
       style="fill:none;stroke:#008000;stroke-width:3;stroke-linecap:round;stroke-linejoin:round;stroke-miterlimit:4;stroke-opacity:1;stroke-dasharray:none"
       d="m 1539.7997,2462.2121 c -14.1896,13.3566 -15.7166,-0.4793 -8.0035,-22.3954 -4.3967,13.7056 -12.9993,38.1028 -30.5352,25.4953 10.8482,8.9383 22.2243,-5.6222 7.9193,-22.8709 -0.1697,-0.6254 -1.2253,1.8405 0.335,-2.5914 -1.5185,4.558 -2.619,8.8769 -12.6144,21.4971 -29.8225,27.5134 -17.1475,-32.2646 -4.5378,-18.6838 6.5086,7.0099 -8.0467,17.9146 -20.6671,24.6305 -13.4529,7.1589 -2.9222,-15.388 4.7846,-42.4357 -15.2625,58.3464 -29.2023,47.5493 -26.8897,31.4706 2.4028,-16.7047 18.4194,-16.1047 17.09,-1.9653"
       inkscape:connector-curvature="0"
       sodipodi:nodetypes="ccccccsscsc" /><path
       sodipodi:nodetypes="ccccszcsc"
       inkscape:connector-curvature="0"
       d="m 1556.616,2453.0934 c 0,0 -0.5374,-11.1019 -6.0586,-11.5275 -5.5212,-0.4255 -14.0405,13.772 -9.4728,22.3127 9.216,12.8484 16.3908,-12.4454 19.6344,-20.8789 -5.9688,14.7631 -13.0147,66.5877 -24.2087,56.8208 -13.3206,-11.6225 14.2824,-28.0414 26.5776,-46.2681 12.2951,-18.2267 16.4481,-12.3254 7.5157,13.9295 5.8882,-18.3672 10.1451,-29.0065 16.901,-25.0953 6.1894,3.5834 -11.9478,32.9762 3.2153,23.9131"
       style="fill:none;stroke:#008000;stroke-width:3;stroke-linecap:round;stroke-linejoin:round;stroke-miterlimit:4;stroke-opacity:1;stroke-dasharray:none"
       id="path4096" /><path
       transform="matrix(0.54563594,0,0,0.65085561,1300.7063,1726.9817)"
       d="m 431.64102,1081.5811 a 5.2468519,5.2468519 0 1 1 -10.49371,0 5.2468519,5.2468519 0 1 1 10.49371,0 z"
       sodipodi:ry="5.2468519"
       sodipodi:rx="5.2468519"
       sodipodi:cy="1081.5811"
       sodipodi:cx="426.39417"
       id="path4098"
       style="color:#000000;fill:none;stroke:#008000;stroke-width:4.95456934;stroke-linecap:round;stroke-linejoin:round;stroke-miterlimit:4;stroke-opacity:1;stroke-dasharray:none;stroke-dashoffset:0;marker:none;visibility:visible;display:inline;overflow:visible;enable-background:accumulate"
       sodipodi:type="arc" /><path
       id="path4100"
       style="fill:none;stroke:#008000;stroke-width:3;stroke-linecap:round;stroke-linejoin:round;stroke-miterlimit:4;stroke-opacity:1;stroke-dasharray:none"
       d="m 1125.2824,2539.7177 c 7.6443,-3.8048 6.2572,-16.6442 -4.2295,-12.9149 -18.9943,6.7546 -21.6478,59.211 6.3731,54.3677 20.5659,-3.5547 30.3891,-37.7934 16.7524,-43.577 -21.4994,-9.1183 -8.2034,56.0093 16.8686,25.8385"
       inkscape:connector-curvature="0"
       sodipodi:nodetypes="csssc" /><path
       id="path4102"
       style="fill:none;stroke:#008000;stroke-width:3;stroke-linecap:round;stroke-linejoin:round;stroke-miterlimit:4;stroke-opacity:1;stroke-dasharray:none"
       d="m 1176.9139,2550.1871 c -19.2338,-31.9782 -26.0277,37.8291 2.8664,20.8638 11.9893,-7.0396 12.121,-14.2317 15.8039,-25.6373 -7.2649,21.1518 -1.1593,41.1405 13.75,16.8773"
       inkscape:connector-curvature="0"
       sodipodi:nodetypes="cscc" /><path
       style="fill:none;stroke:#008000;stroke-width:3;stroke-linecap:round;stroke-linejoin:round;stroke-miterlimit:4;stroke-opacity:1;stroke-dasharray:none"
       d="m 1214.4873,2551.0779 c 8.0216,-14.07 15.5389,-10.5834 5.8384,19.666 12.7684,-38.0478 25.5685,-29.8879 21.2695,-19.0499 -4.5397,11.4448 -6.7416,32.8107 9.7002,18.5978"
       id="path4104"
       inkscape:connector-curvature="0"
       sodipodi:nodetypes="ccsc" /><path
       id="path4106"
       style="fill:none;stroke:#008000;stroke-width:3;stroke-linecap:round;stroke-linejoin:round;stroke-miterlimit:4;stroke-opacity:1;stroke-dasharray:none"
       d="m 1255.251,2566.9785 c 24.8513,-17.4639 9.8554,-39.6616 4.9119,-23.4548 -4.9436,16.2069 14.1858,47.7149 34.6178,-1.674 -1.7609,4.4319 -2.2818,4.6294 -2.0902,5.2548 21.5397,7.9692 17.3997,32.0435 -4.9195,21.8234 22.7877,11.4804 32.5457,-16.32 43.8847,-41.968 -11.659,27.9006 -28.0678,56.5481 1.4166,42.7523"
       inkscape:connector-curvature="0"
       sodipodi:nodetypes="czccccc" /><path
       style="fill:none;stroke:#008000;stroke-width:3;stroke-linecap:round;stroke-linejoin:round;stroke-miterlimit:4;stroke-opacity:1;stroke-dasharray:none"
       d="m 1316.8958,2539.5366 18.9043,-1.5645"
       id="path4108"
       inkscape:connector-curvature="0"
       sodipodi:nodetypes="cc" /><path
       style="color:#000000;fill:none;stroke:#008000;stroke-width:3;stroke-linecap:round;stroke-linejoin:round;stroke-miterlimit:4;stroke-opacity:1;stroke-dasharray:none;stroke-dashoffset:0;marker:none;visibility:visible;display:inline;overflow:visible;enable-background:accumulate"
       d="m 1358.6074,2581.1829 c 0,0 12.4726,-30.516 17.347,-40.2991 -3.212,2.3258 -3.1089,2.1415 -7.6709,4.3544 7.4607,-1.8948 26.4081,-7.0868 20.0953,4.6765 -6.3128,11.7632 -10.7505,24.6859 6.8648,13.2273"
       id="path4110"
       inkscape:connector-curvature="0"
       sodipodi:nodetypes="ccczc" /><path
       id="path4112"
       style="fill:none;stroke:#008000;stroke-width:3;stroke-linecap:round;stroke-linejoin:round;stroke-miterlimit:4;stroke-opacity:1;stroke-dasharray:none"
       d="m 1415.4231,2552.3427 c 0,0 1.0171,-11.5959 -5.785,-12.0215 -6.802,-0.4255 -18.7135,16.3908 -13.0861,24.9315 11.3539,12.8484 19.5144,-14.8629 23.5106,-23.2964 -7.3536,14.7631 -5.0942,37.3267 6.4871,21.5122 11.0904,-15.1442 13.6267,-20.5663 15.3405,-25.1244 -1.7609,4.432 -1.7945,5.0496 -1.6028,5.6749 22.6103,10.9271 6.3285,32.9874 -3.9909,22.5884"
       inkscape:connector-curvature="0"
       sodipodi:nodetypes="csccsccc" /><path
       transform="matrix(0.61578555,0,0,0.65085561,935.18497,1830.9817)"
       d="m 431.64102,1081.5811 a 5.2468519,5.2468519 0 1 1 -10.49371,0 5.2468519,5.2468519 0 1 1 10.49371,0 z"
       sodipodi:ry="5.2468519"
       sodipodi:rx="5.2468519"
       sodipodi:cy="1081.5811"
       sodipodi:cx="426.39417"
       id="path4114"
       style="color:#000000;fill:none;stroke:#008000;stroke-width:4.66382933;stroke-linecap:round;stroke-linejoin:round;stroke-miterlimit:4;stroke-opacity:1;stroke-dasharray:none;stroke-dashoffset:0;marker:none;visibility:visible;display:inline;overflow:visible;enable-background:accumulate"
       sodipodi:type="arc" /><path
       inkscape:connector-curvature="0"
       id="path4116"
       d="m 1251.2557,2547.4737 3.3534,-14.6779"
       style="color:#000000;fill:none;stroke:#008000;stroke-width:3;stroke-linecap:round;stroke-linejoin:round;stroke-miterlimit:4;stroke-opacity:1;stroke-dasharray:none;stroke-dashoffset:0;marker:none;visibility:visible;display:inline;overflow:visible;enable-background:accumulate"
       sodipodi:nodetypes="cc" /><path
       sodipodi:nodetypes="ccccccsscsc"
       inkscape:connector-curvature="0"
       d="m 1562.6495,2562.2121 c -16.0138,13.3566 -17.7372,-0.4793 -9.0324,-22.3954 -4.962,13.7056 -14.6706,38.1028 -34.461,25.4953 12.2429,8.9383 25.0815,-5.6222 8.9375,-22.8709 -0.1916,-0.6254 -1.3829,1.8405 0.378,-2.5914 -1.7138,4.558 -2.9557,8.8769 -14.2362,21.4971 -33.6566,27.5134 -19.3521,-32.2646 -5.1211,-18.6838 7.3453,7.0099 -9.0812,17.9146 -23.3243,24.6305 -15.1824,7.1589 -3.2978,-15.388 5.3998,-42.4357 -17.2247,58.3464 -32.9567,47.5493 -30.3467,31.4706 2.7117,-16.7047 20.7874,-16.1047 19.2871,-1.9653"
       style="fill:none;stroke:#008000;stroke-width:3;stroke-linecap:round;stroke-linejoin:round;stroke-miterlimit:4;stroke-opacity:1;stroke-dasharray:none"
       id="path4118" /><path
       id="path4120"
       style="fill:none;stroke:#008000;stroke-width:3;stroke-linecap:round;stroke-linejoin:round;stroke-miterlimit:4;stroke-opacity:1;stroke-dasharray:none"
       d="m 1581.6278,2553.0934 c 0,0 -0.6065,-11.1019 -6.8375,-11.5275 -6.231,-0.4255 -15.8457,13.772 -10.6906,22.3127 10.4007,12.8484 18.498,-12.4454 22.1586,-20.8789 -6.7362,14.7631 -14.6879,66.5877 -27.3211,56.8208 -15.0332,-11.6225 16.1186,-28.0414 29.9945,-46.2681 13.8759,-18.2267 18.5628,-12.3254 8.4821,13.9295 6.6451,-18.3672 11.4493,-29.0065 19.0738,-25.0953 6.9852,3.5834 -13.4839,32.9762 3.6286,23.9131"
       inkscape:connector-curvature="0"
       sodipodi:nodetypes="ccccszcsc" /><path
       sodipodi:type="arc"
       style="color:#000000;fill:none;stroke:#008000;stroke-width:4.66382933;stroke-linecap:round;stroke-linejoin:round;stroke-miterlimit:4;stroke-opacity:1;stroke-dasharray:none;stroke-dashoffset:0;marker:none;visibility:visible;display:inline;overflow:visible;enable-background:accumulate"
       id="path4122"
       sodipodi:cx="426.39417"
       sodipodi:cy="1081.5811"
       sodipodi:rx="5.2468519"
       sodipodi:ry="5.2468519"
       d="m 431.64102,1081.5811 a 5.2468519,5.2468519 0 1 1 -10.49371,0 5.2468519,5.2468519 0 1 1 10.49371,0 z"
       transform="matrix(0.61578555,0,0,0.65085561,1292.8172,1826.9817)" /></g></svg>