<?xml version="1.0" encoding="UTF-8" standalone="no"?>
<!-- Created with Inkscape (http://www.inkscape.org/) -->

<svg
   xmlns:dc="http://purl.org/dc/elements/1.1/"
   xmlns:cc="http://creativecommons.org/ns#"
   xmlns:rdf="http://www.w3.org/1999/02/22-rdf-syntax-ns#"
   xmlns:svg="http://www.w3.org/2000/svg"
   xmlns="http://www.w3.org/2000/svg"
   xmlns:sodipodi="http://sodipodi.sourceforge.net/DTD/sodipodi-0.dtd"
   xmlns:inkscape="http://www.inkscape.org/namespaces/inkscape"
   id="svg2"
   version="1.1"
   inkscape:version="0.48.3.1 r9886"
   width="131.10249"
   height="131.10249"
   xml:space="preserve"
   sodipodi:docname="150603_shell-30mm.svg"><metadata
     id="metadata8"><rdf:RDF><cc:Work
         rdf:about=""><dc:format>image/svg+xml</dc:format><dc:type
           rdf:resource="http://purl.org/dc/dcmitype/StillImage" /><dc:title></dc:title></cc:Work></rdf:RDF></metadata><defs
     id="defs6"><clipPath
       clipPathUnits="userSpaceOnUse"
       id="clipPath18"><path
         d="m 0,104.882 104.882,0 L 104.882,0 0,0 0,104.882 z"
         id="path20"
         inkscape:connector-curvature="0" /></clipPath><clipPath
       clipPathUnits="userSpaceOnUse"
       id="clipPath32"><path
         d="m 0,104.882 104.882,0 L 104.882,0 0,0 0,104.882 z"
         id="path34"
         inkscape:connector-curvature="0" /></clipPath><clipPath
       clipPathUnits="userSpaceOnUse"
       id="clipPath48"><path
         d="m 0,104.882 104.882,0 L 104.882,0 0,0 0,104.882 z"
         id="path50"
         inkscape:connector-curvature="0" /></clipPath><clipPath
       clipPathUnits="userSpaceOnUse"
       id="clipPath64"><path
         d="m 0,104.882 104.882,0 L 104.882,0 0,0 0,104.882 z"
         id="path66"
         inkscape:connector-curvature="0" /></clipPath></defs><sodipodi:namedview
     pagecolor="#ffffff"
     bordercolor="#666666"
     borderopacity="1"
     objecttolerance="10"
     gridtolerance="10"
     guidetolerance="10"
     inkscape:pageopacity="0"
     inkscape:pageshadow="2"
     inkscape:window-width="640"
     inkscape:window-height="480"
     id="namedview4"
     showgrid="false"
     inkscape:zoom="3.9249875"
     inkscape:cx="55.139059"
     inkscape:cy="67.472419"
     inkscape:current-layer="svg2"
     units="mm"
     showguides="true"><sodipodi:guide
       position="0,131.10236"
       orientation="131.10236,0"
       id="guide3936" /><sodipodi:guide
       position="0,0"
       orientation="0,131.10236"
       id="guide3938" /><sodipodi:guide
       position="131.10236,0"
       orientation="-131.10236,0"
       id="guide3940" /><sodipodi:guide
       position="131.10236,131.10236"
       orientation="0,-131.10236"
       id="guide3942" /><sodipodi:guide
       position="12.401642,118.70085"
       orientation="106.29921,0"
       id="guide3957" /><sodipodi:guide
       position="12.401642,12.401642"
       orientation="0,106.29921"
       id="guide3959" /><sodipodi:guide
       position="118.70085,12.401642"
       orientation="-106.29921,0"
       id="guide3961" /><sodipodi:guide
       position="118.70085,118.70085"
       orientation="0,-106.29921"
       id="guide3963" /><sodipodi:guide
       position="19.488255,111.61424"
       orientation="92.125984,0"
       id="guide3972" /><sodipodi:guide
       position="19.488255,19.488254"
       orientation="0,92.125984"
       id="guide3974" /><sodipodi:guide
       position="111.61424,19.488254"
       orientation="-92.125984,0"
       id="guide3976" /><sodipodi:guide
       position="111.61424,111.61424"
       orientation="0,-92.125984"
       id="guide3978" /></sodipodi:namedview><g
     inkscape:groupmode="layer"
     id="layer1"
     inkscape:label="XX_REFERENZ"
     style="display:inline"
     sodipodi:insensitive="true"><path
       style="color:#000000;fill:#ffd5d5;fill-opacity:1;fill-rule:nonzero;stroke:none;stroke-width:1;marker:none;visibility:visible;display:inline;overflow:visible;enable-background:accumulate"
       d="m 118.70085,65.551262 c 0,29.35372 -23.795886,53.149588 -53.149601,53.149588 -29.353721,0 -53.149609,-23.795868 -53.149609,-53.149588 0,-29.353712 23.795888,-53.149609 53.149609,-53.149609 29.353715,0 53.149601,23.795897 53.149601,53.149609 z"
       id="path3095"
       inkscape:connector-curvature="0" /><path
       inkscape:connector-curvature="0"
       id="path3143"
       d="m 111.61424,65.55126 c 0,25.439891 -20.6231,46.06299 -46.062987,46.06299 -25.439893,0 -46.062996,-20.623099 -46.062996,-46.06299 0,-25.439885 20.623103,-46.062996 46.062996,-46.062996 25.439887,0 46.062987,20.623111 46.062987,46.062996 z"
       style="color:#000000;fill:#d7f4ee;fill-opacity:1;fill-rule:nonzero;stroke:none;stroke-width:1;marker:none;visibility:visible;display:inline;overflow:visible;enable-background:accumulate" /></g><g
     inkscape:groupmode="layer"
     id="layer2"
     inkscape:label="DRAW"><path
       style="color:#000000;fill:none;stroke:#374845;stroke-width:1;marker:none;visibility:visible;display:inline;overflow:visible;enable-background:accumulate"
       d="m 0.5,3.025723 0,-2.52558971 2.52559,0 m 125.05118,0 2.52559,0 0,2.52558971 m 0,125.051177 0,2.52559 -2.52559,0 m -125.05118,0 -2.52559,0 0,-2.52559"
       id="rect4834"
       inkscape:connector-curvature="0"
       sodipodi:nodetypes="cccccccccccc"
       sodipodi:insensitive="true" /><g
       id="g4557"
       transform="matrix(1.5247544,0,0,1.5247544,-34.398206,-34.398419)"><circle
         id="circle4094"
         r="32"
         cy="33"
         cx="33"
         style="fill:none;stroke:#000000;stroke-width:12.13735294;stroke-miterlimit:4;stroke-dasharray:none;display:inline"
         sodipodi:cx="33"
         sodipodi:cy="33"
         sodipodi:rx="32"
         sodipodi:ry="32"
         transform="matrix(1.0807024,0,0,1.0807024,29.888002,29.888141)"
         d="M 65,33 C 65,50.673112 50.673112,65 33,65 15.326888,65 1,50.673112 1,33 1,15.326888 15.326888,1 33,1 50.673112,1 65,15.326888 65,33 z" /><circle
         d="M 65,33 C 65,50.673112 50.673112,65 33,65 15.326888,65 1,50.673112 1,33 1,15.326888 15.326888,1 33,1 50.673112,1 65,15.326888 65,33 z"
         transform="matrix(1.0807024,0,0,1.0807024,29.888002,29.888141)"
         sodipodi:ry="32"
         sodipodi:rx="32"
         sodipodi:cy="33"
         sodipodi:cx="33"
         style="fill:#ffff00;stroke:none;display:inline"
         cx="33"
         cy="33"
         r="32"
         id="circle5277" /><path
         inkscape:connector-curvature="0"
         style="fill:#ff0000;stroke:none;display:inline"
         d="m 32.589758,54.744296 65.922846,0 q 3.782446,10.807024 0,21.614047 l -65.922846,0 q -3.782459,-10.807023 0,-21.614047"
         id="path5279" /><path
         inkscape:connector-curvature="0"
         style="fill:none;stroke:#000000;stroke-width:0.39350602;stroke-miterlimit:4;stroke-dasharray:none;display:inline"
         d="m 97.972254,54.744296 0,21.614047"
         id="path5281" /><path
         inkscape:connector-curvature="0"
         style="stroke:#000000;stroke-width:0.39350602;stroke-miterlimit:4;stroke-dasharray:none;display:inline"
         d="m 36.372216,76.358343 0,7.564918"
         id="path5283" /><path
         inkscape:connector-curvature="0"
         style="stroke:#000000;stroke-width:0.39350602;stroke-miterlimit:4;stroke-dasharray:none;display:inline"
         d="m 39.614324,76.358343 0,11.887728"
         id="path5285" /><path
         inkscape:connector-curvature="0"
         style="stroke:#000000;stroke-width:0.39350602;stroke-miterlimit:4;stroke-dasharray:none;display:inline"
         d="m 42.856432,76.358343 0,11.887728"
         id="path5287" /><path
         inkscape:connector-curvature="0"
         style="stroke:#000000;stroke-width:0.39350602;stroke-miterlimit:4;stroke-dasharray:none;display:inline"
         d="m 46.098538,76.358343 0,11.887728"
         id="path5289" /><path
         inkscape:connector-curvature="0"
         style="stroke:#000000;stroke-width:0.39350602;stroke-miterlimit:4;stroke-dasharray:none;display:inline"
         d="m 49.340646,76.358343 0,11.887728"
         id="path5291" /><path
         inkscape:connector-curvature="0"
         style="stroke:#000000;stroke-width:0.39350602;stroke-miterlimit:4;stroke-dasharray:none;display:inline"
         d="m 52.582753,76.358343 0,11.887728"
         id="path5293" /><path
         inkscape:connector-curvature="0"
         style="stroke:#000000;stroke-width:0.39350602;stroke-miterlimit:4;stroke-dasharray:none;display:inline"
         d="m 55.824859,76.358343 0,11.887728"
         id="path5295" /><path
         inkscape:connector-curvature="0"
         style="stroke:#000000;stroke-width:0.39350602;stroke-miterlimit:4;stroke-dasharray:none;display:inline"
         d="m 59.066967,76.358343 0,11.887728"
         id="path5297" /><path
         inkscape:connector-curvature="0"
         style="stroke:#000000;stroke-width:0.39350602;stroke-miterlimit:4;stroke-dasharray:none;display:inline"
         d="m 62.309074,76.358343 0,11.887728"
         id="path5299" /><path
         inkscape:connector-curvature="0"
         style="stroke:#000000;stroke-width:0.39350602;stroke-miterlimit:4;stroke-dasharray:none;display:inline"
         d="m 65.551182,54.744296 0,33.501775"
         id="path5301" /><path
         inkscape:connector-curvature="0"
         style="stroke:#000000;stroke-width:0.39350602;stroke-miterlimit:4;stroke-dasharray:none;display:inline"
         d="m 68.793288,54.744296 0,33.501775"
         id="path5303" /><path
         inkscape:connector-curvature="0"
         style="stroke:#000000;stroke-width:0.39350602;stroke-miterlimit:4;stroke-dasharray:none;display:inline"
         d="m 72.035395,54.744296 0,33.501775"
         id="path5305" /><path
         inkscape:connector-curvature="0"
         style="stroke:#000000;stroke-width:0.39350602;stroke-miterlimit:4;stroke-dasharray:none;display:inline"
         d="m 75.277503,54.744296 0,33.501775"
         id="path5307" /><path
         inkscape:connector-curvature="0"
         style="stroke:#000000;stroke-width:0.39350602;stroke-miterlimit:4;stroke-dasharray:none;display:inline"
         d="m 78.51961,54.744296 0,33.501775"
         id="path5309" /><path
         inkscape:connector-curvature="0"
         style="stroke:#000000;stroke-width:0.39350602;stroke-miterlimit:4;stroke-dasharray:none;display:inline"
         d="m 81.761718,54.744296 0,33.501775"
         id="path5311" /><path
         inkscape:connector-curvature="0"
         style="stroke:#000000;stroke-width:0.39350602;stroke-miterlimit:4;stroke-dasharray:none;display:inline"
         d="m 85.003825,54.744296 0,33.501775"
         id="path5313" /><path
         inkscape:connector-curvature="0"
         style="stroke:#000000;stroke-width:0.39350602;stroke-miterlimit:4;stroke-dasharray:none;display:inline"
         d="m 88.245932,54.744296 0,33.501775"
         id="path5315" /><path
         inkscape:connector-curvature="0"
         style="stroke:#000000;stroke-width:0.39350602;stroke-miterlimit:4;stroke-dasharray:none;display:inline"
         d="m 91.488039,54.744296 0,33.501775"
         id="path5317" /><path
         inkscape:connector-curvature="0"
         style="stroke:#000000;stroke-width:0.39350602;stroke-miterlimit:4;stroke-dasharray:none;display:inline"
         d="m 94.730146,54.744296 0,29.178965"
         id="path5319" /><path
         inkscape:connector-curvature="0"
         style="fill:#007f00;stroke:#000000;stroke-width:0.39350602;stroke-miterlimit:4;stroke-dasharray:none;display:inline"
         d="m 59.066967,81.761856 q -1.621053,-2.701756 -8.645619,-5.403513 -4.32281,2.161406 -4.32281,7.564918 L 61.228371,100.1338"
         id="path5321" /><path
         inkscape:connector-curvature="0"
         style="fill:#007f00;stroke:#000000;stroke-width:0.39350602;stroke-miterlimit:4;stroke-dasharray:none;display:inline"
         d="m 72.035395,81.761856 q 1.621054,-2.701756 8.645621,-5.403513 4.322809,2.161406 4.322809,7.564918 L 69.873991,100.1338"
         id="path5323" /><path
         inkscape:connector-curvature="0"
         style="fill:#007f00;stroke:#000000;stroke-width:0.39350602;stroke-miterlimit:4;stroke-dasharray:none;display:inline"
         d="M 61.228371,100.1338 Q 51.50205,83.923261 65.551182,76.358343 79.600313,83.923261 69.873991,100.1338"
         id="path5325" /><path
         inkscape:connector-curvature="0"
         style="fill:#007f00;stroke:none;display:inline"
         d="m 33.23818,76.358343 -0.324212,0 q 3.998599,18.371942 28.746685,23.775457"
         id="path5327" /><path
         inkscape:connector-curvature="0"
         style="fill:#007f00;stroke:#000000;stroke-width:0.39350602;stroke-miterlimit:4;stroke-dasharray:none;display:inline"
         d="M 61.228371,100.1338 Q 52.582753,86.084665 46.098538,83.923261 38.533621,80.681154 32.913968,76.358343"
         id="path5329" /><path
         inkscape:connector-curvature="0"
         style="fill:#007f00;stroke:none;display:inline"
         d="m 97.864184,76.358343 0.32421,0 Q 94.189795,94.730285 69.44171,100.1338"
         id="path5331" /><path
         inkscape:connector-curvature="0"
         style="fill:#007f00;stroke:#000000;stroke-width:0.39350602;stroke-miterlimit:4;stroke-dasharray:none;display:inline"
         d="M 69.873991,100.1338 Q 78.51961,86.084665 85.003825,83.923261 92.568742,80.681154 98.188394,76.358343"
         id="path5333" /><path
         inkscape:connector-curvature="0"
         style="stroke:#000000;stroke-width:0.39350602;stroke-miterlimit:4;stroke-dasharray:none;display:inline"
         d="m 65.551182,76.358343 0,23.775457"
         id="path5335" /><circle
         d="M 65,33 C 65,50.673112 50.673112,65 33,65 15.326888,65 1,50.673112 1,33 1,15.326888 15.326888,1 33,1 50.673112,1 65,15.326888 65,33 z"
         transform="matrix(1.0807024,0,0,1.0807024,29.888002,29.888141)"
         sodipodi:ry="32"
         sodipodi:rx="32"
         sodipodi:cy="33"
         sodipodi:cx="33"
         style="fill:none;stroke:#000000;stroke-width:1.21373534;stroke-miterlimit:4;stroke-dasharray:none;display:inline"
         cx="33"
         cy="33"
         r="32"
         id="circle5337" /><path
         inkscape:connector-curvature="0"
         style="stroke:#000000;stroke-width:0.39350602;stroke-miterlimit:4;stroke-dasharray:none;display:inline"
         d="m 65.551182,31.074221 0,5.619652"
         id="path5339" /><path
         inkscape:connector-curvature="0"
         style="stroke:#000000;stroke-width:0.39350602;stroke-miterlimit:4;stroke-dasharray:none;display:inline"
         d="m 67.536956,31.290362 0,5.187371"
         id="path5341" /><path
         inkscape:connector-curvature="0"
         style="stroke:#000000;stroke-width:0.39350602;stroke-miterlimit:4;stroke-dasharray:none;display:inline"
         d="m 63.565406,31.290362 0,5.187371"
         id="path5343" /><path
         inkscape:connector-curvature="0"
         style="stroke:#000000;stroke-width:0.39350602;stroke-miterlimit:4;stroke-dasharray:none;display:inline"
         d="m 69.522731,31.290362 0,4.106669"
         id="path5345" /><path
         inkscape:connector-curvature="0"
         style="stroke:#000000;stroke-width:0.39350602;stroke-miterlimit:4;stroke-dasharray:none;display:inline"
         d="m 61.579631,31.290362 0,4.106669"
         id="path5347" /><path
         inkscape:connector-curvature="0"
         style="fill:none;stroke:#000000;stroke-width:0.39350602;stroke-miterlimit:4;stroke-dasharray:none;display:inline"
         d="m 60.14767,31.184984 q 0,5.727722 5.403512,5.727722 5.403511,0 5.403511,-5.727722"
         id="path5349" /><path
         inkscape:connector-curvature="0"
         style="stroke:#000000;stroke-width:0.39350602;stroke-miterlimit:4;stroke-dasharray:none;display:inline"
         d="m 32.913968,54.744296 65.274426,0"
         id="path5351" /><path
         inkscape:connector-curvature="0"
         style="stroke:#000000;stroke-width:0.39350602;stroke-miterlimit:4;stroke-dasharray:none;display:inline"
         d="m 32.913968,76.358343 65.274426,0"
         id="path5353" /><path
         inkscape:connector-curvature="0"
         style="stroke:#000000;stroke-width:0.39350602;stroke-miterlimit:4;stroke-dasharray:none;display:inline"
         d="m 65.551182,33.130247 12.428078,0"
         id="path5355" /><path
         inkscape:connector-curvature="0"
         style="stroke:#000000;stroke-width:0.39350602;stroke-miterlimit:4;stroke-dasharray:none;display:inline"
         d="m 65.551182,36.372355 18.37194,0"
         id="path5357" /><path
         inkscape:connector-curvature="0"
         style="stroke:#000000;stroke-width:0.39350602;stroke-miterlimit:4;stroke-dasharray:none;display:inline"
         d="m 65.551182,39.614463 22.69475,0"
         id="path5359" /><path
         inkscape:connector-curvature="0"
         style="stroke:#000000;stroke-width:0.39350602;stroke-miterlimit:4;stroke-dasharray:none;display:inline"
         d="m 65.551182,42.85657 25.936857,0"
         id="path5361" /><path
         inkscape:connector-curvature="0"
         style="stroke:#000000;stroke-width:0.39350602;stroke-miterlimit:4;stroke-dasharray:none;display:inline"
         d="m 65.551182,46.098677 28.638613,0"
         id="path5363" /><path
         inkscape:connector-curvature="0"
         style="stroke:#000000;stroke-width:0.39350602;stroke-miterlimit:4;stroke-dasharray:none;display:inline"
         d="m 65.551182,49.340784 30.259667,0"
         id="path5365" /><path
         inkscape:connector-curvature="0"
         style="stroke:#000000;stroke-width:0.39350602;stroke-miterlimit:4;stroke-dasharray:none;display:inline"
         d="m 65.551182,52.582892 32.421072,0"
         id="path5367" /><circle
         d="m 15,33 c 0,2.761424 -2.238576,5 -5,5 -2.7614237,0 -5,-2.238576 -5,-5 0,-2.761424 2.2385763,-5 5,-5 2.761424,0 5,2.238576 5,5 z"
         transform="matrix(1.0807024,0,0,1.0807024,29.888002,29.888141)"
         sodipodi:ry="5"
         sodipodi:rx="5"
         sodipodi:cy="33"
         sodipodi:cx="10"
         style="fill:none;stroke:#000000;stroke-width:0.36412063;stroke-miterlimit:4;stroke-dasharray:none;display:inline"
         cx="10"
         cy="33"
         r="5"
         id="circle5369" /><path
         inkscape:connector-curvature="0"
         style="stroke:#000000;stroke-width:0.39350602;stroke-miterlimit:4;stroke-dasharray:none;display:inline"
         d="m 35.291514,65.55132 10.807024,0"
         id="path5371" /><path
         inkscape:connector-curvature="0"
         style="stroke:#000000;stroke-width:0.39350602;stroke-miterlimit:4;stroke-dasharray:none;display:inline"
         d="m 35.507654,63.664241 10.374744,0"
         id="path5373" /><path
         inkscape:connector-curvature="0"
         style="stroke:#000000;stroke-width:0.39350602;stroke-miterlimit:4;stroke-dasharray:none;display:inline"
         d="m 35.507654,67.438399 10.374744,0"
         id="path5375" /><path
         sodipodi:nodetypes="cc"
         inkscape:connector-curvature="0"
         style="stroke:#000000;stroke-width:0.39350602;stroke-miterlimit:4;stroke-dasharray:none;display:inline"
         d="m 36.926695,61.777162 7.639223,0"
         id="path5377" /><path
         sodipodi:nodetypes="cc"
         inkscape:connector-curvature="0"
         style="stroke:#000000;stroke-width:0.39350602;stroke-miterlimit:4;stroke-dasharray:none;display:inline"
         d="m 36.858039,69.325477 7.634107,0"
         id="path5379" /><circle
         d="m 38,33 c 0,2.761424 -2.238576,5 -5,5 -2.761424,0 -5,-2.238576 -5,-5 0,-2.761424 2.238576,-5 5,-5 2.761424,0 5,2.238576 5,5 z"
         transform="matrix(1.0807024,0,0,1.0807024,29.888002,29.888141)"
         sodipodi:ry="5"
         sodipodi:rx="5"
         sodipodi:cy="33"
         sodipodi:cx="33"
         style="fill:none;stroke:#000000;stroke-width:0.36412063;stroke-miterlimit:4;stroke-dasharray:none;display:inline"
         cx="33"
         cy="33"
         r="5"
         id="circle5381" /><path
         inkscape:connector-curvature="0"
         style="stroke:#000000;stroke-width:0.39350602;stroke-miterlimit:4;stroke-dasharray:none;display:inline"
         d="m 60.14767,65.55132 10.807023,0"
         id="path5383" /><path
         inkscape:connector-curvature="0"
         style="stroke:#000000;stroke-width:0.39350602;stroke-miterlimit:4;stroke-dasharray:none;display:inline"
         d="m 60.36381,63.664241 10.374742,0"
         id="path5385" /><path
         inkscape:connector-curvature="0"
         style="stroke:#000000;stroke-width:0.39350602;stroke-miterlimit:4;stroke-dasharray:none;display:inline"
         d="m 60.36381,67.438399 10.374742,0"
         id="path5387" /><path
         sodipodi:nodetypes="cc"
         inkscape:connector-curvature="0"
         style="stroke:#000000;stroke-width:0.39350602;stroke-miterlimit:4;stroke-dasharray:none;display:inline"
         d="m 61.71377,61.777162 7.627427,0"
         id="path5389" /><path
         sodipodi:nodetypes="cc"
         inkscape:connector-curvature="0"
         style="stroke:#000000;stroke-width:0.39350602;stroke-miterlimit:4;stroke-dasharray:none;display:inline"
         d="m 61.71377,69.325477 7.722218,0"
         id="path5391" /><circle
         d="m 61,33 c 0,2.761424 -2.238576,5 -5,5 -2.761424,0 -5,-2.238576 -5,-5 0,-2.761424 2.238576,-5 5,-5 2.761424,0 5,2.238576 5,5 z"
         transform="matrix(1.0807024,0,0,1.0807024,29.888002,29.888141)"
         sodipodi:ry="5"
         sodipodi:rx="5"
         sodipodi:cy="33"
         sodipodi:cx="56"
         style="fill:none;stroke:#000000;stroke-width:0.36412063;stroke-miterlimit:4;stroke-dasharray:none;display:inline"
         cx="56"
         cy="33"
         r="5"
         id="circle5393" /><path
         inkscape:connector-curvature="0"
         style="stroke:#000000;stroke-width:0.39350602;stroke-miterlimit:4;stroke-dasharray:none;display:inline"
         d="m 85.003825,65.55132 10.807024,0"
         id="path5395" /><path
         inkscape:connector-curvature="0"
         style="stroke:#000000;stroke-width:0.39350602;stroke-miterlimit:4;stroke-dasharray:none;display:inline"
         d="m 85.219965,63.664241 10.374743,0"
         id="path5397" /><path
         inkscape:connector-curvature="0"
         style="stroke:#000000;stroke-width:0.39350602;stroke-miterlimit:4;stroke-dasharray:none;display:inline"
         d="m 85.219965,67.438399 10.374743,0"
         id="path5399" /><path
         sodipodi:nodetypes="cc"
         inkscape:connector-curvature="0"
         style="stroke:#000000;stroke-width:0.39350602;stroke-miterlimit:4;stroke-dasharray:none;display:inline"
         d="m 86.649277,61.777162 7.60178,0"
         id="path5401" /><path
         sodipodi:nodetypes="cc"
         inkscape:connector-curvature="0"
         style="stroke:#000000;stroke-width:0.39350602;stroke-miterlimit:4;stroke-dasharray:none;display:inline"
         d="m 86.606447,69.325477 7.55895,0"
         id="path5403" /><path
         inkscape:connector-curvature="0"
         style="stroke:#000000;stroke-width:0.39350602;stroke-miterlimit:4;stroke-dasharray:none;display:inline"
         d="m 65.551182,97.972392 12.428078,0"
         id="path5405" /><path
         inkscape:connector-curvature="0"
         style="stroke:#000000;stroke-width:0.39350602;stroke-miterlimit:4;stroke-dasharray:none;display:inline"
         d="m 65.551182,94.730285 18.37194,0"
         id="path5407" /><path
         inkscape:connector-curvature="0"
         style="stroke:#000000;stroke-width:0.39350602;stroke-miterlimit:4;stroke-dasharray:none;display:inline"
         d="m 65.551182,91.488177 22.69475,0"
         id="path5409" /><path
         inkscape:connector-curvature="0"
         style="stroke:#000000;stroke-width:0.39350602;stroke-miterlimit:4;stroke-dasharray:none;display:inline"
         d="m 65.551182,88.246071 25.936857,0"
         id="path5411" /><path
         inkscape:connector-curvature="0"
         style="stroke:#000000;stroke-width:0.39350602;stroke-miterlimit:4;stroke-dasharray:none;display:inline"
         d="m 65.551182,85.003964 28.638613,0"
         id="path5413" /><path
         inkscape:connector-curvature="0"
         style="stroke:#000000;stroke-width:0.39350602;stroke-miterlimit:4;stroke-dasharray:none;display:inline"
         d="m 65.551182,81.761856 30.259667,0"
         id="path5415" /><path
         inkscape:connector-curvature="0"
         style="stroke:#000000;stroke-width:0.39350602;stroke-miterlimit:4;stroke-dasharray:none;display:inline"
         d="m 65.551182,78.519749 32.421072,0"
         id="path5417" /></g></g><g
     style="display:inline"
     inkscape:label="XX_COVER"
     id="g3980"
     inkscape:groupmode="layer"
     sodipodi:insensitive="true"><path
       id="path4027"
       style="color:#000000;fill:#f2f2f2;fill-opacity:1;fill-rule:nonzero;stroke:none;stroke-width:1;marker:none;visibility:visible;display:inline;overflow:visible;enable-background:accumulate"
       d="m 118.70085,65.551258 c 0,29.353725 -23.795886,53.149582 -53.149601,53.149582 -29.353721,0 -53.149609,-23.795857 -53.149609,-53.149582 0,-29.353712 23.795888,-53.149609 53.149609,-53.149609 29.353715,0 53.149601,23.795897 53.149601,53.149609 z M 0,1.3248688e-4 0,131.10248 l 131.10236,0 0,-131.10234751312 z"
       inkscape:connector-curvature="0" /><text
       xml:space="preserve"
       style="font-size:7.57278013px;font-style:normal;font-variant:normal;font-weight:300;font-stretch:normal;text-align:start;line-height:125%;letter-spacing:0px;word-spacing:0px;writing-mode:lr-tb;text-anchor:start;fill:#000000;fill-opacity:1;stroke:none;display:inline;font-family:Source Code Pro;-inkscape-font-specification:Source Code Pro Light"
       x="56.373688"
       y="-8.1260176"
       id="text4591"
       sodipodi:linespacing="125%"><tspan
         sodipodi:role="line"
         id="tspan4593"
         x="56.373688"
         y="-8.1260176">30mm</tspan></text>
<g
       style="display:inline"
       id="g4610"
       transform="translate(0,-5.3879785)"><path
         id="path4600"
         style="color:#000000;fill:none;stroke:#000000;stroke-width:0.2;stroke-linecap:butt;stroke-linejoin:bevel;stroke-miterlimit:4;stroke-opacity:1;stroke-dasharray:none;stroke-dashoffset:0;marker:none;visibility:visible;display:inline;overflow:visible;enable-background:accumulate"
         d="m 116.42129,-7.135415 1.97787,1.977874 -1.97787,1.977874 m -101.740082,0 -1.977875,-1.977874 1.977875,-1.977874 m -1.996444,1.977874 40.539183,0 m 24.654595,0 40.539188,0"
         inkscape:connector-curvature="0"
         sodipodi:nodetypes="cccccccccc" /></g><text
       sodipodi:linespacing="125%"
       id="text4615"
       y="-18.126017"
       x="56.373688"
       style="font-size:7.57278013px;font-style:normal;font-variant:normal;font-weight:300;font-stretch:normal;text-align:start;line-height:125%;letter-spacing:0px;word-spacing:0px;writing-mode:lr-tb;text-anchor:start;fill:#000000;fill-opacity:1;stroke:none;display:inline;font-family:Source Code Pro;-inkscape-font-specification:Source Code Pro Light"
       xml:space="preserve"><tspan
         y="-18.126017"
         x="56.373688"
         id="tspan4617"
         sodipodi:role="line">37mm</tspan></text>
<path
       id="path4625"
       style="color:#000000;fill:none;stroke:#000000;stroke-width:0.2;stroke-linecap:butt;stroke-linejoin:bevel;stroke-miterlimit:4;stroke-opacity:1;stroke-dasharray:none;stroke-dashoffset:0;marker:none;visibility:visible;display:inline;overflow:visible;enable-background:accumulate"
       d="m 128.63317,-22.523394 1.97787,1.977874 -1.97787,1.977874 m -126.163847,0 -1.977875,-1.977874 1.977875,-1.977874 m 76.621104,1.977874 51.539183,0 m -130.156731,0 51.539183,0"
       inkscape:connector-curvature="0"
       sodipodi:nodetypes="cccccccccc" /></g></svg>