<?xml version="1.0" encoding="UTF-8" standalone="no"?>
<!-- Created with Inkscape (http://www.inkscape.org/) -->

<svg
   xmlns:dc="http://purl.org/dc/elements/1.1/"
   xmlns:cc="http://creativecommons.org/ns#"
   xmlns:rdf="http://www.w3.org/1999/02/22-rdf-syntax-ns#"
   xmlns:svg="http://www.w3.org/2000/svg"
   xmlns="http://www.w3.org/2000/svg"
   xmlns:sodipodi="http://sodipodi.sourceforge.net/DTD/sodipodi-0.dtd"
   xmlns:inkscape="http://www.inkscape.org/namespaces/inkscape"
   id="svg2"
   version="1.1"
   inkscape:version="0.48.3.1 r9886"
   width="131.10249"
   height="131.10249"
   xml:space="preserve"
   sodipodi:docname="150603_shell-20mm.svg"><metadata
     id="metadata8"><rdf:RDF><cc:Work
         rdf:about=""><dc:format>image/svg+xml</dc:format><dc:type
           rdf:resource="http://purl.org/dc/dcmitype/StillImage" /><dc:title /></cc:Work></rdf:RDF></metadata><defs
     id="defs6"><clipPath
       clipPathUnits="userSpaceOnUse"
       id="clipPath18"><path
         d="m 0,104.882 104.882,0 L 104.882,0 0,0 0,104.882 z"
         id="path20"
         inkscape:connector-curvature="0" /></clipPath><clipPath
       clipPathUnits="userSpaceOnUse"
       id="clipPath32"><path
         d="m 0,104.882 104.882,0 L 104.882,0 0,0 0,104.882 z"
         id="path34"
         inkscape:connector-curvature="0" /></clipPath><clipPath
       clipPathUnits="userSpaceOnUse"
       id="clipPath48"><path
         d="m 0,104.882 104.882,0 L 104.882,0 0,0 0,104.882 z"
         id="path50"
         inkscape:connector-curvature="0" /></clipPath><clipPath
       clipPathUnits="userSpaceOnUse"
       id="clipPath64"><path
         d="m 0,104.882 104.882,0 L 104.882,0 0,0 0,104.882 z"
         id="path66"
         inkscape:connector-curvature="0" /></clipPath></defs><sodipodi:namedview
     pagecolor="#ffffff"
     bordercolor="#666666"
     borderopacity="1"
     objecttolerance="10"
     gridtolerance="10"
     guidetolerance="10"
     inkscape:pageopacity="0"
     inkscape:pageshadow="2"
     inkscape:window-width="640"
     inkscape:window-height="480"
     id="namedview4"
     showgrid="false"
     units="mm"
     inkscape:zoom="2.2528662"
     inkscape:cx="5.5542666"
     inkscape:cy="58.920709"
     inkscape:current-layer="g3018"
     showguides="true"><sodipodi:guide
       position="30.118176,100.98432"
       orientation="0,70.866144"
       id="guide3783" /><sodipodi:guide
       position="100.98432,100.98432"
       orientation="70.866142,0"
       id="guide3785" /><sodipodi:guide
       position="100.98432,30.118177"
       orientation="0,-70.866144"
       id="guide3787" /><sodipodi:guide
       position="30.118176,30.118177"
       orientation="-70.866142,7.1054274e-15"
       id="guide3789" /><sodipodi:guide
       position="0,131.10236"
       orientation="0,131.10236"
       id="guide3804" /><sodipodi:guide
       position="131.10236,131.10236"
       orientation="131.10237,0"
       id="guide3806" /><sodipodi:guide
       position="131.10236,-3.046875e-06"
       orientation="0,-131.10236"
       id="guide3808" /><sodipodi:guide
       position="0,-3.046875e-06"
       orientation="-131.10237,0"
       id="guide3810" /><sodipodi:guide
       position="37.204792,93.897703"
       orientation="0,56.69291"
       id="guide4822" /><sodipodi:guide
       position="93.897702,93.897703"
       orientation="56.692913,0"
       id="guide4824" /><sodipodi:guide
       position="93.897702,37.20479"
       orientation="0,-56.69291"
       id="guide4826" /><sodipodi:guide
       position="37.204792,37.20479"
       orientation="-56.692913,0"
       id="guide4828" /></sodipodi:namedview><g
     inkscape:groupmode="layer"
     id="layer1"
     inkscape:label="XX_REFERENZ"
     style="display:none"
     sodipodi:insensitive="true"><path
       style="color:#000000;fill:#ffd5d5;fill-opacity:1;fill-rule:nonzero;stroke:none;stroke-width:1;marker:none;visibility:visible;display:inline;overflow:visible;enable-background:accumulate"
       d="m 100.98432,65.551246 c 0,19.569147 -15.863928,35.433064 -35.43307,35.433064 -19.569148,0 -35.433074,-15.863917 -35.433074,-35.433064 0,-19.569142 15.863926,-35.433074 35.433074,-35.433074 19.569142,0 35.43307,15.863932 35.43307,35.433074 z"
       id="path3095"
       inkscape:connector-curvature="0" /><path
       inkscape:connector-curvature="0"
       id="path4589"
       d="m 93.897703,65.551248 c 0,15.655315 -12.691142,28.346455 -28.346455,28.346455 -15.655318,0 -28.346458,-12.69114 -28.346458,-28.346455 0,-15.655313 12.69114,-28.346458 28.346458,-28.346458 15.655313,0 28.346455,12.691145 28.346455,28.346458 z"
       style="color:#000000;fill:#d7f4ee;fill-opacity:1;fill-rule:nonzero;stroke:none;stroke-width:1;marker:none;visibility:visible;display:inline;overflow:visible;enable-background:accumulate" /></g><g
     inkscape:groupmode="layer"
     id="layer3"
     inkscape:label="XX_Schelle"
     style="display:none"
     sodipodi:insensitive="true"><path
       style="color:#000000;fill:none;stroke:#374845;stroke-width:1;marker:none;visibility:visible;display:inline;overflow:visible;enable-background:accumulate"
       d="m 0.5,3.025721 0,-2.52558971 2.52559,0 m 125.05118,0 2.52559,0 0,2.52558971 m 0,125.051179 0,2.52559 -2.52559,0 m -125.05118,0 -2.52559,0 0,-2.52559"
       id="rect4834"
       inkscape:connector-curvature="0"
       sodipodi:nodetypes="cccccccccccc" /><g
       style="display:inline"
       id="g5188"
       transform="matrix(1.0581708,0,0,1.0581708,-3.4170016,-3.373401)"><circle
         id="circle4792"
         r="5"
         cy="65"
         cx="33"
         style="fill:#007f00;stroke:#000000;stroke-width:0.94502705"
         sodipodi:cx="33"
         sodipodi:cy="65"
         sodipodi:rx="5"
         sodipodi:ry="5"
         transform="translate(32.26916,32.286139)"
         d="m 38,65 c 0,2.761424 -2.238576,5 -5,5 -2.761424,0 -5,-2.238576 -5,-5 0,-2.761424 2.238576,-5 5,-5 2.761424,0 5,2.238576 5,5 z" /><path
         id="path4794"
         d="m 65.26916,97.286139 0,5.000001"
         style="stroke:#000000;stroke-width:0.94502705"
         inkscape:connector-curvature="0" /><path
         id="path4796"
         d="m 67.26916,97.286139 0,4.000001"
         style="stroke:#000000;stroke-width:0.94502705"
         inkscape:connector-curvature="0" /><path
         id="path4798"
         d="m 69.26916,97.286139 0,3.000001"
         style="stroke:#000000;stroke-width:0.94502705"
         inkscape:connector-curvature="0" /><circle
         id="circle4800"
         r="32"
         cy="33"
         cx="33"
         style="fill:#ffff00;stroke:none"
         sodipodi:cx="33"
         sodipodi:cy="33"
         sodipodi:rx="32"
         sodipodi:ry="32"
         transform="translate(32.26916,32.286139)"
         d="M 65,33 C 65,50.673112 50.673112,65 33,65 15.326888,65 1,50.673112 1,33 1,15.326888 15.326888,1 33,1 50.673112,1 65,15.326888 65,33 z" /><path
         id="path4802"
         d="m 34.76916,55.286139 61,0 q 3.5,10 0,20 l -61,0 q -3.5,-10 0,-20"
         style="fill:#ff0000;stroke:none"
         inkscape:connector-curvature="0" /><path
         id="path4804"
         d="m 95.26916,55.286139 0,20"
         style="fill:none;stroke:#000000;stroke-width:0.94502705"
         inkscape:connector-curvature="0" /><path
         id="path4806"
         d="m 38.26916,75.286139 0,7"
         style="stroke:#000000;stroke-width:0.94502705"
         inkscape:connector-curvature="0" /><path
         id="path4808"
         d="m 41.26916,75.286139 0,11"
         style="stroke:#000000;stroke-width:0.94502705"
         inkscape:connector-curvature="0" /><path
         id="path4810"
         d="m 44.26916,75.286139 0,11"
         style="stroke:#000000;stroke-width:0.94502705"
         inkscape:connector-curvature="0" /><path
         id="path4812"
         d="m 47.26916,75.286139 0,11"
         style="stroke:#000000;stroke-width:0.94502705"
         inkscape:connector-curvature="0" /><path
         id="path4814"
         d="m 50.26916,75.286139 0,11"
         style="stroke:#000000;stroke-width:0.94502705"
         inkscape:connector-curvature="0" /><path
         id="path4816"
         d="m 53.26916,75.286139 0,11"
         style="stroke:#000000;stroke-width:0.94502705"
         inkscape:connector-curvature="0" /><path
         id="path4818"
         d="m 56.26916,75.286139 0,11"
         style="stroke:#000000;stroke-width:0.94502705"
         inkscape:connector-curvature="0" /><path
         id="path4820"
         d="m 59.26916,75.286139 0,11"
         style="stroke:#000000;stroke-width:0.94502705"
         inkscape:connector-curvature="0" /><path
         id="path4822"
         d="m 62.26916,75.286139 0,11"
         style="stroke:#000000;stroke-width:0.94502705"
         inkscape:connector-curvature="0" /><path
         id="path4824"
         d="m 65.26916,55.286139 0,31"
         style="stroke:#000000;stroke-width:0.94502705"
         inkscape:connector-curvature="0" /><path
         id="path4826"
         d="m 68.26916,55.286139 0,31"
         style="stroke:#000000;stroke-width:0.94502705"
         inkscape:connector-curvature="0" /><path
         id="path4828"
         d="m 71.26916,55.286139 0,31"
         style="stroke:#000000;stroke-width:0.94502705"
         inkscape:connector-curvature="0" /><path
         id="path4830"
         d="m 74.26916,55.286139 0,31"
         style="stroke:#000000;stroke-width:0.94502705"
         inkscape:connector-curvature="0" /><path
         id="path4832"
         d="m 77.26916,55.286139 0,31"
         style="stroke:#000000;stroke-width:0.94502705"
         inkscape:connector-curvature="0" /><path
         id="path4834"
         d="m 80.26916,55.286139 0,31"
         style="stroke:#000000;stroke-width:0.94502705"
         inkscape:connector-curvature="0" /><path
         id="path4836"
         d="m 83.26916,55.286139 0,31"
         style="stroke:#000000;stroke-width:0.94502705"
         inkscape:connector-curvature="0" /><path
         id="path4838"
         d="m 86.26916,55.286139 0,31"
         style="stroke:#000000;stroke-width:0.94502705"
         inkscape:connector-curvature="0" /><path
         id="path4840"
         d="m 89.26916,55.286139 0,31"
         style="stroke:#000000;stroke-width:0.94502705"
         inkscape:connector-curvature="0" /><path
         id="path4842"
         d="m 92.26916,55.286139 0,27"
         style="stroke:#000000;stroke-width:0.94502705"
         inkscape:connector-curvature="0" /><path
         id="path4844"
         d="m 59.26916,80.286139 q -1.5,-2.5 -8,-5 -4,2 -4,7 l 14,15"
         style="fill:#007f00;stroke:#000000;stroke-width:0.94502705"
         inkscape:connector-curvature="0" /><path
         id="path4846"
         d="m 71.26916,80.286139 q 1.5,-2.5 8,-5 4,2 4,7 l -14,15"
         style="fill:#007f00;stroke:#000000;stroke-width:0.94502705"
         inkscape:connector-curvature="0" /><path
         id="path4848"
         d="m 61.26916,97.286139 q -9,-15 4,-22 13,7 4,22"
         style="fill:#007f00;stroke:#000000;stroke-width:0.94502705"
         inkscape:connector-curvature="0" /><path
         id="path4850"
         d="m 35.36916,75.286139 -0.3,0 q 3.7,17 26.6,22"
         style="fill:#007f00;stroke:none"
         inkscape:connector-curvature="0" /><path
         id="path4852"
         d="m 61.26916,97.286139 q -8,-13 -14,-15 -7,-3 -12.2,-7"
         style="fill:#007f00;stroke:#000000;stroke-width:0.94502705"
         inkscape:connector-curvature="0" /><path
         id="path4854"
         d="m 95.16916,75.286139 0.3,0 q -3.7,17 -26.6,22"
         style="fill:#007f00;stroke:none"
         inkscape:connector-curvature="0" /><path
         id="path4856"
         d="m 69.26916,97.286139 q 8,-13 14,-15 7,-3 12.2,-7"
         style="fill:#007f00;stroke:#000000;stroke-width:0.94502705"
         inkscape:connector-curvature="0" /><path
         id="path4858"
         d="m 65.26916,75.286139 0,22"
         style="stroke:#000000;stroke-width:0.94502705"
         inkscape:connector-curvature="0" /><circle
         id="circle4860"
         r="32"
         cy="33"
         cx="33"
         style="fill:none;stroke:#000000;stroke-width:0.94502705"
         sodipodi:cx="33"
         sodipodi:cy="33"
         sodipodi:rx="32"
         sodipodi:ry="32"
         transform="translate(32.26916,32.286139)"
         d="M 65,33 C 65,50.673112 50.673112,65 33,65 15.326888,65 1,50.673112 1,33 1,15.326888 15.326888,1 33,1 50.673112,1 65,15.326888 65,33 z" /><path
         id="path4862"
         d="m 65.26916,33.286139 0,5.2"
         style="stroke:#000000;stroke-width:0.94502705"
         inkscape:connector-curvature="0" /><path
         id="path4864"
         d="m 67.26916,33.486139 0,4.8"
         style="stroke:#000000;stroke-width:0.94502705"
         inkscape:connector-curvature="0" /><path
         id="path4866"
         d="m 63.26916,33.486139 0,4.8"
         style="stroke:#000000;stroke-width:0.94502705"
         inkscape:connector-curvature="0" /><path
         id="path4868"
         d="m 69.26916,33.486139 0,3.8"
         style="stroke:#000000;stroke-width:0.94502705"
         inkscape:connector-curvature="0" /><path
         id="path4870"
         d="m 61.26916,33.486139 0,3.8"
         style="stroke:#000000;stroke-width:0.94502705"
         inkscape:connector-curvature="0" /><path
         id="path4872"
         d="m 60.26916,33.486139 q 0,5.3 5,5.3 5,0 5,-5.3"
         style="fill:none;stroke:#000000;stroke-width:0.94502705"
         inkscape:connector-curvature="0" /><path
         id="path4874"
         d="m 35.06916,55.286139 60.4,0"
         style="stroke:#000000;stroke-width:0.94502705"
         inkscape:connector-curvature="0" /><path
         id="path4876"
         d="m 35.06916,75.286139 60.4,0"
         style="stroke:#000000;stroke-width:0.94502705"
         inkscape:connector-curvature="0" /><path
         id="path4878"
         d="m 65.26916,35.286139 11.5,0"
         style="stroke:#000000;stroke-width:0.94502705"
         inkscape:connector-curvature="0" /><path
         id="path4880"
         d="m 65.26916,38.286139 17,0"
         style="stroke:#000000;stroke-width:0.94502705"
         inkscape:connector-curvature="0" /><path
         id="path4882"
         d="m 65.26916,41.286139 21,0"
         style="stroke:#000000;stroke-width:0.94502705"
         inkscape:connector-curvature="0" /><path
         id="path4884"
         d="m 65.26916,44.286139 24,0"
         style="stroke:#000000;stroke-width:0.94502705"
         inkscape:connector-curvature="0" /><path
         id="path4886"
         d="m 65.26916,47.286139 26.5,0"
         style="stroke:#000000;stroke-width:0.94502705"
         inkscape:connector-curvature="0" /><path
         id="path4888"
         d="m 65.26916,50.286139 28,0"
         style="stroke:#000000;stroke-width:0.94502705"
         inkscape:connector-curvature="0" /><path
         id="path4890"
         d="m 65.26916,53.286139 30,0"
         style="stroke:#000000;stroke-width:0.94502705"
         inkscape:connector-curvature="0" /><circle
         id="circle4892"
         r="5"
         cy="33"
         cx="10"
         style="fill:none;stroke:#000000;stroke-width:0.94502705"
         sodipodi:cx="10"
         sodipodi:cy="33"
         sodipodi:rx="5"
         sodipodi:ry="5"
         transform="translate(32.26916,32.286139)"
         d="m 15,33 c 0,2.761424 -2.238576,5 -5,5 -2.7614237,0 -5,-2.238576 -5,-5 0,-2.761424 2.2385763,-5 5,-5 2.761424,0 5,2.238576 5,5 z" /><path
         id="path4894"
         d="m 37.26916,65.286139 10,0"
         style="stroke:#000000;stroke-width:0.94502705"
         inkscape:connector-curvature="0" /><path
         id="path4896"
         d="m 37.46916,63.286139 9.6,0"
         style="stroke:#000000;stroke-width:0.94502705"
         inkscape:connector-curvature="0" /><path
         id="path4898"
         d="m 37.46916,67.286139 9.6,0"
         style="stroke:#000000;stroke-width:0.94502705"
         inkscape:connector-curvature="0" /><path
         id="path4900"
         d="m 39.06916,61.286139 6.4,0"
         style="stroke:#000000;stroke-width:0.94502705"
         inkscape:connector-curvature="0" /><path
         id="path4902"
         d="m 39.06916,69.286139 6.4,0"
         style="stroke:#000000;stroke-width:0.94502705"
         inkscape:connector-curvature="0" /><circle
         id="circle4904"
         r="5"
         cy="33"
         cx="33"
         style="fill:none;stroke:#000000;stroke-width:0.94502705"
         sodipodi:cx="33"
         sodipodi:cy="33"
         sodipodi:rx="5"
         sodipodi:ry="5"
         transform="translate(32.26916,32.286139)"
         d="m 38,33 c 0,2.761424 -2.238576,5 -5,5 -2.761424,0 -5,-2.238576 -5,-5 0,-2.761424 2.238576,-5 5,-5 2.761424,0 5,2.238576 5,5 z" /><path
         id="path4906"
         d="m 60.26916,65.286139 10,0"
         style="stroke:#000000;stroke-width:0.94502705"
         inkscape:connector-curvature="0" /><path
         id="path4908"
         d="m 60.46916,63.286139 9.6,0"
         style="stroke:#000000;stroke-width:0.94502705"
         inkscape:connector-curvature="0" /><path
         id="path4910"
         d="m 60.46916,67.286139 9.6,0"
         style="stroke:#000000;stroke-width:0.94502705"
         inkscape:connector-curvature="0" /><path
         id="path4912"
         d="m 62.06916,61.286139 6.4,0"
         style="stroke:#000000;stroke-width:0.94502705"
         inkscape:connector-curvature="0" /><path
         id="path4914"
         d="m 62.06916,69.286139 6.4,0"
         style="stroke:#000000;stroke-width:0.94502705"
         inkscape:connector-curvature="0" /><circle
         id="circle4916"
         r="5"
         cy="33"
         cx="56"
         style="fill:none;stroke:#000000;stroke-width:0.94502705"
         sodipodi:cx="56"
         sodipodi:cy="33"
         sodipodi:rx="5"
         sodipodi:ry="5"
         transform="translate(32.26916,32.286139)"
         d="m 61,33 c 0,2.761424 -2.238576,5 -5,5 -2.761424,0 -5,-2.238576 -5,-5 0,-2.761424 2.238576,-5 5,-5 2.761424,0 5,2.238576 5,5 z" /><path
         id="path4918"
         d="m 83.26916,65.286139 10,0"
         style="stroke:#000000;stroke-width:0.94502705"
         inkscape:connector-curvature="0" /><path
         id="path4920"
         d="m 83.46916,63.286139 9.6,0"
         style="stroke:#000000;stroke-width:0.94502705"
         inkscape:connector-curvature="0" /><path
         id="path4922"
         d="m 83.46916,67.286139 9.6,0"
         style="stroke:#000000;stroke-width:0.94502705"
         inkscape:connector-curvature="0" /><path
         id="path4924"
         d="m 85.06916,61.286139 6.4,0"
         style="stroke:#000000;stroke-width:0.94502705"
         inkscape:connector-curvature="0" /><path
         id="path4926"
         d="m 85.06916,69.286139 6.4,0"
         style="stroke:#000000;stroke-width:0.94502705"
         inkscape:connector-curvature="0" /><path
         id="path4928"
         d="m 65.26916,95.286139 11.5,0"
         style="stroke:#000000;stroke-width:0.94502705"
         inkscape:connector-curvature="0" /><path
         id="path4930"
         d="m 65.26916,92.286139 17,0"
         style="stroke:#000000;stroke-width:0.94502705"
         inkscape:connector-curvature="0" /><path
         id="path4932"
         d="m 65.26916,89.286139 21,0"
         style="stroke:#000000;stroke-width:0.94502705"
         inkscape:connector-curvature="0" /><path
         id="path4934"
         d="m 65.26916,86.286139 24,0"
         style="stroke:#000000;stroke-width:0.94502705"
         inkscape:connector-curvature="0" /><path
         id="path4936"
         d="m 65.26916,83.286139 26.5,0"
         style="stroke:#000000;stroke-width:0.94502705"
         inkscape:connector-curvature="0" /><path
         id="path4938"
         d="m 65.26916,80.286139 28,0"
         style="stroke:#000000;stroke-width:0.94502705"
         inkscape:connector-curvature="0" /><path
         id="path4940"
         d="m 65.26916,77.286139 30,0"
         style="stroke:#000000;stroke-width:0.94502705"
         inkscape:connector-curvature="0" /></g></g><g
     style="display:inline"
     inkscape:label="Schelle"
     id="g3018"
     inkscape:groupmode="layer"><circle
       d="M 65,33 C 65,50.673112 50.673112,65 33,65 15.326888,65 1,50.673112 1,33 1,15.326888 15.326888,1 33,1 50.673112,1 65,15.326888 65,33 z"
       transform="matrix(1.0807024,0,0,1.0807024,29.888002,29.888141)"
       sodipodi:ry="32"
       sodipodi:rx="32"
       sodipodi:cy="33"
       sodipodi:cx="33"
       style="fill:none;stroke:#000000;stroke-width:18.50648308;stroke-miterlimit:4;stroke-dasharray:none;display:inline"
       cx="33"
       cy="33"
       r="32"
       id="circle4094" /><path
       sodipodi:nodetypes="cccccccccccc"
       inkscape:connector-curvature="0"
       id="path3020"
       d="m 0.5,3.025721 0,-2.52558971 2.52559,0 m 125.05118,0 2.52559,0 0,2.52558971 m 0,125.051179 0,2.52559 -2.52559,0 m -125.05118,0 -2.52559,0 0,-2.52559"
       style="color:#000000;fill:none;stroke:#374845;stroke-width:1;marker:none;visibility:visible;display:inline;overflow:visible;enable-background:accumulate"
       sodipodi:insensitive="true" /><circle
       id="circle5277"
       r="32"
       cy="33"
       cx="33"
       style="fill:#ffff00;stroke:none;display:inline"
       sodipodi:cx="33"
       sodipodi:cy="33"
       sodipodi:rx="32"
       sodipodi:ry="32"
       transform="matrix(1.0807024,0,0,1.0807024,29.888002,29.888141)"
       d="M 65,33 C 65,50.673112 50.673112,65 33,65 15.326888,65 1,50.673112 1,33 1,15.326888 15.326888,1 33,1 50.673112,1 65,15.326888 65,33 z" /><path
       id="path5279"
       d="m 32.589758,54.744296 65.922846,0 q 3.782446,10.807024 0,21.614047 l -65.922846,0 q -3.782459,-10.807023 0,-21.614047"
       style="fill:#ff0000;stroke:none;display:inline"
       inkscape:connector-curvature="0" /><path
       id="path5281"
       d="m 97.972254,54.744296 0,21.614047"
       style="fill:none;stroke:#000000;stroke-width:0.60000008;stroke-miterlimit:4;stroke-dasharray:none;display:inline"
       inkscape:connector-curvature="0" /><path
       id="path5283"
       d="m 36.372216,76.358343 0,7.564918"
       style="stroke:#000000;stroke-width:0.60000008;stroke-miterlimit:4;stroke-dasharray:none;display:inline"
       inkscape:connector-curvature="0" /><path
       id="path5285"
       d="m 39.614324,76.358343 0,11.887728"
       style="stroke:#000000;stroke-width:0.60000008;stroke-miterlimit:4;stroke-dasharray:none;display:inline"
       inkscape:connector-curvature="0" /><path
       id="path5287"
       d="m 42.856432,76.358343 0,11.887728"
       style="stroke:#000000;stroke-width:0.60000008;stroke-miterlimit:4;stroke-dasharray:none;display:inline"
       inkscape:connector-curvature="0" /><path
       id="path5289"
       d="m 46.098538,76.358343 0,11.887728"
       style="stroke:#000000;stroke-width:0.60000008;stroke-miterlimit:4;stroke-dasharray:none;display:inline"
       inkscape:connector-curvature="0" /><path
       id="path5291"
       d="m 49.340646,76.358343 0,11.887728"
       style="stroke:#000000;stroke-width:0.60000008;stroke-miterlimit:4;stroke-dasharray:none;display:inline"
       inkscape:connector-curvature="0" /><path
       id="path5293"
       d="m 52.582753,76.358343 0,11.887728"
       style="stroke:#000000;stroke-width:0.60000008;stroke-miterlimit:4;stroke-dasharray:none;display:inline"
       inkscape:connector-curvature="0" /><path
       id="path5295"
       d="m 55.824859,76.358343 0,11.887728"
       style="stroke:#000000;stroke-width:0.60000008;stroke-miterlimit:4;stroke-dasharray:none;display:inline"
       inkscape:connector-curvature="0" /><path
       id="path5297"
       d="m 59.066967,76.358343 0,11.887728"
       style="stroke:#000000;stroke-width:0.60000008;stroke-miterlimit:4;stroke-dasharray:none;display:inline"
       inkscape:connector-curvature="0" /><path
       id="path5299"
       d="m 62.309074,76.358343 0,11.887728"
       style="stroke:#000000;stroke-width:0.60000008;stroke-miterlimit:4;stroke-dasharray:none;display:inline"
       inkscape:connector-curvature="0" /><path
       id="path5301"
       d="m 65.551182,54.744296 0,33.501775"
       style="stroke:#000000;stroke-width:0.60000008;stroke-miterlimit:4;stroke-dasharray:none;display:inline"
       inkscape:connector-curvature="0" /><path
       id="path5303"
       d="m 68.793288,54.744296 0,33.501775"
       style="stroke:#000000;stroke-width:0.60000008;stroke-miterlimit:4;stroke-dasharray:none;display:inline"
       inkscape:connector-curvature="0" /><path
       id="path5305"
       d="m 72.035395,54.744296 0,33.501775"
       style="stroke:#000000;stroke-width:0.60000008;stroke-miterlimit:4;stroke-dasharray:none;display:inline"
       inkscape:connector-curvature="0" /><path
       id="path5307"
       d="m 75.277503,54.744296 0,33.501775"
       style="stroke:#000000;stroke-width:0.60000008;stroke-miterlimit:4;stroke-dasharray:none;display:inline"
       inkscape:connector-curvature="0" /><path
       id="path5309"
       d="m 78.51961,54.744296 0,33.501775"
       style="stroke:#000000;stroke-width:0.60000008;stroke-miterlimit:4;stroke-dasharray:none;display:inline"
       inkscape:connector-curvature="0" /><path
       id="path5311"
       d="m 81.761718,54.744296 0,33.501775"
       style="stroke:#000000;stroke-width:0.60000008;stroke-miterlimit:4;stroke-dasharray:none;display:inline"
       inkscape:connector-curvature="0" /><path
       id="path5313"
       d="m 85.003825,54.744296 0,33.501775"
       style="stroke:#000000;stroke-width:0.60000008;stroke-miterlimit:4;stroke-dasharray:none;display:inline"
       inkscape:connector-curvature="0" /><path
       id="path5315"
       d="m 88.245932,54.744296 0,33.501775"
       style="stroke:#000000;stroke-width:0.60000008;stroke-miterlimit:4;stroke-dasharray:none;display:inline"
       inkscape:connector-curvature="0" /><path
       id="path5317"
       d="m 91.488039,54.744296 0,33.501775"
       style="stroke:#000000;stroke-width:0.60000008;stroke-miterlimit:4;stroke-dasharray:none;display:inline"
       inkscape:connector-curvature="0" /><path
       id="path5319"
       d="m 94.730146,54.744296 0,29.178965"
       style="stroke:#000000;stroke-width:0.60000008;stroke-miterlimit:4;stroke-dasharray:none;display:inline"
       inkscape:connector-curvature="0" /><path
       id="path5321"
       d="m 59.066967,81.761856 q -1.621053,-2.701756 -8.645619,-5.403513 -4.32281,2.161406 -4.32281,7.564918 L 61.228371,100.1338"
       style="fill:#007f00;stroke:#000000;stroke-width:0.60000008;stroke-miterlimit:4;stroke-dasharray:none;display:inline"
       inkscape:connector-curvature="0" /><path
       id="path5323"
       d="m 72.035395,81.761856 q 1.621054,-2.701756 8.645621,-5.403513 4.322809,2.161406 4.322809,7.564918 L 69.873991,100.1338"
       style="fill:#007f00;stroke:#000000;stroke-width:0.60000008;stroke-miterlimit:4;stroke-dasharray:none;display:inline"
       inkscape:connector-curvature="0" /><path
       id="path5325"
       d="M 61.228371,100.1338 Q 51.50205,83.923261 65.551182,76.358343 79.600313,83.923261 69.873991,100.1338"
       style="fill:#007f00;stroke:#000000;stroke-width:0.60000008;stroke-miterlimit:4;stroke-dasharray:none;display:inline"
       inkscape:connector-curvature="0" /><path
       id="path5327"
       d="m 33.23818,76.358343 -0.324212,0 q 3.998599,18.371942 28.746685,23.775457"
       style="fill:#007f00;stroke:none;display:inline"
       inkscape:connector-curvature="0" /><path
       id="path5329"
       d="M 61.228371,100.1338 Q 52.582753,86.084665 46.098538,83.923261 38.533621,80.681154 32.913968,76.358343"
       style="fill:#007f00;stroke:#000000;stroke-width:0.60000008;stroke-miterlimit:4;stroke-dasharray:none;display:inline"
       inkscape:connector-curvature="0" /><path
       id="path5331"
       d="m 97.864184,76.358343 0.32421,0 Q 94.189795,94.730285 69.44171,100.1338"
       style="fill:#007f00;stroke:none;display:inline"
       inkscape:connector-curvature="0" /><path
       id="path5333"
       d="M 69.873991,100.1338 Q 78.51961,86.084665 85.003825,83.923261 92.568742,80.681154 98.188394,76.358343"
       style="fill:#007f00;stroke:#000000;stroke-width:0.60000008;stroke-miterlimit:4;stroke-dasharray:none;display:inline"
       inkscape:connector-curvature="0" /><path
       id="path5335"
       d="m 65.551182,76.358343 0,23.775457"
       style="stroke:#000000;stroke-width:0.60000008;stroke-miterlimit:4;stroke-dasharray:none;display:inline"
       inkscape:connector-curvature="0" /><circle
       id="circle5337"
       r="32"
       cy="33"
       cx="33"
       style="fill:none;stroke:#000000;stroke-width:1.85064828;stroke-miterlimit:4;stroke-dasharray:none;display:inline"
       sodipodi:cx="33"
       sodipodi:cy="33"
       sodipodi:rx="32"
       sodipodi:ry="32"
       transform="matrix(1.0807024,0,0,1.0807024,29.888002,29.888141)"
       d="M 65,33 C 65,50.673112 50.673112,65 33,65 15.326888,65 1,50.673112 1,33 1,15.326888 15.326888,1 33,1 50.673112,1 65,15.326888 65,33 z" /><path
       id="path5339"
       d="m 65.551182,31.074221 0,5.619652"
       style="stroke:#000000;stroke-width:0.60000008;stroke-miterlimit:4;stroke-dasharray:none;display:inline"
       inkscape:connector-curvature="0" /><path
       id="path5341"
       d="m 67.536956,31.290362 0,5.187371"
       style="stroke:#000000;stroke-width:0.60000008;stroke-miterlimit:4;stroke-dasharray:none;display:inline"
       inkscape:connector-curvature="0" /><path
       id="path5343"
       d="m 63.565406,31.290362 0,5.187371"
       style="stroke:#000000;stroke-width:0.60000008;stroke-miterlimit:4;stroke-dasharray:none;display:inline"
       inkscape:connector-curvature="0" /><path
       id="path5345"
       d="m 69.522731,31.290362 0,4.106669"
       style="stroke:#000000;stroke-width:0.60000008;stroke-miterlimit:4;stroke-dasharray:none;display:inline"
       inkscape:connector-curvature="0" /><path
       id="path5347"
       d="m 61.579631,31.290362 0,4.106669"
       style="stroke:#000000;stroke-width:0.60000008;stroke-miterlimit:4;stroke-dasharray:none;display:inline"
       inkscape:connector-curvature="0" /><path
       id="path5349"
       d="m 60.14767,31.184984 q 0,5.727722 5.403512,5.727722 5.403511,0 5.403511,-5.727722"
       style="fill:none;stroke:#000000;stroke-width:0.60000008;stroke-miterlimit:4;stroke-dasharray:none;display:inline"
       inkscape:connector-curvature="0" /><path
       id="path5351"
       d="m 32.913968,54.744296 65.274426,0"
       style="stroke:#000000;stroke-width:0.60000008;stroke-miterlimit:4;stroke-dasharray:none;display:inline"
       inkscape:connector-curvature="0" /><path
       id="path5353"
       d="m 32.913968,76.358343 65.274426,0"
       style="stroke:#000000;stroke-width:0.60000008;stroke-miterlimit:4;stroke-dasharray:none;display:inline"
       inkscape:connector-curvature="0" /><path
       id="path5355"
       d="m 65.551182,33.130247 12.428078,0"
       style="stroke:#000000;stroke-width:0.60000008;stroke-miterlimit:4;stroke-dasharray:none;display:inline"
       inkscape:connector-curvature="0" /><path
       id="path5357"
       d="m 65.551182,36.372355 18.37194,0"
       style="stroke:#000000;stroke-width:0.60000008;stroke-miterlimit:4;stroke-dasharray:none;display:inline"
       inkscape:connector-curvature="0" /><path
       id="path5359"
       d="m 65.551182,39.614463 22.69475,0"
       style="stroke:#000000;stroke-width:0.60000008;stroke-miterlimit:4;stroke-dasharray:none;display:inline"
       inkscape:connector-curvature="0" /><path
       id="path5361"
       d="m 65.551182,42.85657 25.936857,0"
       style="stroke:#000000;stroke-width:0.60000008;stroke-miterlimit:4;stroke-dasharray:none;display:inline"
       inkscape:connector-curvature="0" /><path
       id="path5363"
       d="m 65.551182,46.098677 28.638613,0"
       style="stroke:#000000;stroke-width:0.60000008;stroke-miterlimit:4;stroke-dasharray:none;display:inline"
       inkscape:connector-curvature="0" /><path
       id="path5365"
       d="m 65.551182,49.340784 30.259667,0"
       style="stroke:#000000;stroke-width:0.60000008;stroke-miterlimit:4;stroke-dasharray:none;display:inline"
       inkscape:connector-curvature="0" /><path
       id="path5367"
       d="m 65.551182,52.582892 32.421072,0"
       style="stroke:#000000;stroke-width:0.60000008;stroke-miterlimit:4;stroke-dasharray:none;display:inline"
       inkscape:connector-curvature="0" /><circle
       id="circle5369"
       r="5"
       cy="33"
       cx="10"
       style="fill:none;stroke:#000000;stroke-width:0.5551945;stroke-miterlimit:4;stroke-dasharray:none;display:inline"
       sodipodi:cx="10"
       sodipodi:cy="33"
       sodipodi:rx="5"
       sodipodi:ry="5"
       transform="matrix(1.0807024,0,0,1.0807024,29.888002,29.888141)"
       d="m 15,33 c 0,2.761424 -2.238576,5 -5,5 -2.7614237,0 -5,-2.238576 -5,-5 0,-2.761424 2.2385763,-5 5,-5 2.761424,0 5,2.238576 5,5 z" /><path
       id="path5371"
       d="m 35.291514,65.55132 10.807024,0"
       style="stroke:#000000;stroke-width:0.60000008;stroke-miterlimit:4;stroke-dasharray:none;display:inline"
       inkscape:connector-curvature="0" /><path
       id="path5373"
       d="m 35.507654,63.664241 10.374744,0"
       style="stroke:#000000;stroke-width:0.60000008;stroke-miterlimit:4;stroke-dasharray:none;display:inline"
       inkscape:connector-curvature="0" /><path
       id="path5375"
       d="m 35.507654,67.438399 10.374744,0"
       style="stroke:#000000;stroke-width:0.60000008;stroke-miterlimit:4;stroke-dasharray:none;display:inline"
       inkscape:connector-curvature="0" /><path
       id="path5377"
       d="m 36.926695,61.777162 7.639223,0"
       style="stroke:#000000;stroke-width:0.60000008;stroke-miterlimit:4;stroke-dasharray:none;display:inline"
       inkscape:connector-curvature="0"
       sodipodi:nodetypes="cc" /><path
       id="path5379"
       d="m 36.858039,69.325477 7.634107,0"
       style="stroke:#000000;stroke-width:0.60000008;stroke-miterlimit:4;stroke-dasharray:none;display:inline"
       inkscape:connector-curvature="0"
       sodipodi:nodetypes="cc" /><circle
       id="circle5381"
       r="5"
       cy="33"
       cx="33"
       style="fill:none;stroke:#000000;stroke-width:0.5551945;stroke-miterlimit:4;stroke-dasharray:none;display:inline"
       sodipodi:cx="33"
       sodipodi:cy="33"
       sodipodi:rx="5"
       sodipodi:ry="5"
       transform="matrix(1.0807024,0,0,1.0807024,29.888002,29.888141)"
       d="m 38,33 c 0,2.761424 -2.238576,5 -5,5 -2.761424,0 -5,-2.238576 -5,-5 0,-2.761424 2.238576,-5 5,-5 2.761424,0 5,2.238576 5,5 z" /><path
       id="path5383"
       d="m 60.14767,65.55132 10.807023,0"
       style="stroke:#000000;stroke-width:0.60000008;stroke-miterlimit:4;stroke-dasharray:none;display:inline"
       inkscape:connector-curvature="0" /><path
       id="path5385"
       d="m 60.36381,63.664241 10.374742,0"
       style="stroke:#000000;stroke-width:0.60000008;stroke-miterlimit:4;stroke-dasharray:none;display:inline"
       inkscape:connector-curvature="0" /><path
       id="path5387"
       d="m 60.36381,67.438399 10.374742,0"
       style="stroke:#000000;stroke-width:0.60000008;stroke-miterlimit:4;stroke-dasharray:none;display:inline"
       inkscape:connector-curvature="0" /><path
       id="path5389"
       d="m 61.71377,61.777162 7.627427,0"
       style="stroke:#000000;stroke-width:0.60000008;stroke-miterlimit:4;stroke-dasharray:none;display:inline"
       inkscape:connector-curvature="0"
       sodipodi:nodetypes="cc" /><path
       id="path5391"
       d="m 61.71377,69.325477 7.722218,0"
       style="stroke:#000000;stroke-width:0.60000008;stroke-miterlimit:4;stroke-dasharray:none;display:inline"
       inkscape:connector-curvature="0"
       sodipodi:nodetypes="cc" /><circle
       id="circle5393"
       r="5"
       cy="33"
       cx="56"
       style="fill:none;stroke:#000000;stroke-width:0.5551945;stroke-miterlimit:4;stroke-dasharray:none;display:inline"
       sodipodi:cx="56"
       sodipodi:cy="33"
       sodipodi:rx="5"
       sodipodi:ry="5"
       transform="matrix(1.0807024,0,0,1.0807024,29.888002,29.888141)"
       d="m 61,33 c 0,2.761424 -2.238576,5 -5,5 -2.761424,0 -5,-2.238576 -5,-5 0,-2.761424 2.238576,-5 5,-5 2.761424,0 5,2.238576 5,5 z" /><path
       id="path5395"
       d="m 85.003825,65.55132 10.807024,0"
       style="stroke:#000000;stroke-width:0.60000008;stroke-miterlimit:4;stroke-dasharray:none;display:inline"
       inkscape:connector-curvature="0" /><path
       id="path5397"
       d="m 85.219965,63.664241 10.374743,0"
       style="stroke:#000000;stroke-width:0.60000008;stroke-miterlimit:4;stroke-dasharray:none;display:inline"
       inkscape:connector-curvature="0" /><path
       id="path5399"
       d="m 85.219965,67.438399 10.374743,0"
       style="stroke:#000000;stroke-width:0.60000008;stroke-miterlimit:4;stroke-dasharray:none;display:inline"
       inkscape:connector-curvature="0" /><path
       id="path5401"
       d="m 86.649277,61.777162 7.60178,0"
       style="stroke:#000000;stroke-width:0.60000008;stroke-miterlimit:4;stroke-dasharray:none;display:inline"
       inkscape:connector-curvature="0"
       sodipodi:nodetypes="cc" /><path
       id="path5403"
       d="m 86.606447,69.325477 7.55895,0"
       style="stroke:#000000;stroke-width:0.60000008;stroke-miterlimit:4;stroke-dasharray:none;display:inline"
       inkscape:connector-curvature="0"
       sodipodi:nodetypes="cc" /><path
       id="path5405"
       d="m 65.551182,97.972392 12.428078,0"
       style="stroke:#000000;stroke-width:0.60000008;stroke-miterlimit:4;stroke-dasharray:none;display:inline"
       inkscape:connector-curvature="0" /><path
       id="path5407"
       d="m 65.551182,94.730285 18.37194,0"
       style="stroke:#000000;stroke-width:0.60000008;stroke-miterlimit:4;stroke-dasharray:none;display:inline"
       inkscape:connector-curvature="0" /><path
       id="path5409"
       d="m 65.551182,91.488177 22.69475,0"
       style="stroke:#000000;stroke-width:0.60000008;stroke-miterlimit:4;stroke-dasharray:none;display:inline"
       inkscape:connector-curvature="0" /><path
       id="path5411"
       d="m 65.551182,88.246071 25.936857,0"
       style="stroke:#000000;stroke-width:0.60000008;stroke-miterlimit:4;stroke-dasharray:none;display:inline"
       inkscape:connector-curvature="0" /><path
       id="path5413"
       d="m 65.551182,85.003964 28.638613,0"
       style="stroke:#000000;stroke-width:0.60000008;stroke-miterlimit:4;stroke-dasharray:none;display:inline"
       inkscape:connector-curvature="0" /><path
       id="path5415"
       d="m 65.551182,81.761856 30.259667,0"
       style="stroke:#000000;stroke-width:0.60000008;stroke-miterlimit:4;stroke-dasharray:none;display:inline"
       inkscape:connector-curvature="0" /><path
       id="path5417"
       d="m 65.551182,78.519749 32.421072,0"
       style="stroke:#000000;stroke-width:0.60000008;stroke-miterlimit:4;stroke-dasharray:none;display:inline"
       inkscape:connector-curvature="0" /></g><g
     style="display:inline"
     inkscape:label="XX_COVER"
     id="g4690"
     inkscape:groupmode="layer"
     sodipodi:insensitive="true">





<text
   xml:space="preserve"
   style="font-size:7.57278013px;font-style:normal;font-variant:normal;font-weight:300;font-stretch:normal;text-align:start;line-height:125%;letter-spacing:0px;word-spacing:0px;writing-mode:lr-tb;text-anchor:start;fill:#000000;fill-opacity:1;stroke:none;display:inline;font-family:Source Code Pro;-inkscape-font-specification:Source Code Pro Light"
   x="56.373688"
   y="-8.1260166"
   id="text4591"
   sodipodi:linespacing="125%"><tspan
     sodipodi:role="line"
     id="tspan4593"
     x="56.373688"
     y="-8.1260166">20mm</tspan></text>
<g
   style="display:inline"
   id="g4610"
   transform="translate(0,-5.3879785)"><path
     sodipodi:nodetypes="cccc"
     inkscape:connector-curvature="0"
     id="path4595"
     d="m 30.472879,-5.157541 21.539183,0 m 27.078365,0 21.539183,0"
     style="fill:none;stroke:#000000;stroke-width:0.2;stroke-linecap:butt;stroke-linejoin:miter;stroke-miterlimit:4;stroke-opacity:1;stroke-dasharray:none" /><path
     sodipodi:nodetypes="ccc"
     inkscape:connector-curvature="0"
     id="rect4597"
     d="m 32.469323,-3.179667 -1.977875,-1.977874 1.977875,-1.977874"
     style="color:#000000;fill:none;stroke:#000000;stroke-width:0.2;stroke-linecap:butt;stroke-linejoin:bevel;stroke-miterlimit:4;stroke-opacity:1;stroke-dasharray:none;stroke-dashoffset:0;marker:none;visibility:visible;display:inline;overflow:visible;enable-background:accumulate" /><path
     style="color:#000000;fill:none;stroke:#000000;stroke-width:0.2;stroke-linecap:butt;stroke-linejoin:bevel;stroke-miterlimit:4;stroke-opacity:1;stroke-dasharray:none;stroke-dashoffset:0;marker:none;visibility:visible;display:inline;overflow:visible;enable-background:accumulate"
     d="m 98.633166,-7.135415 1.977874,1.977874 -1.977874,1.977874"
     id="path4600"
     inkscape:connector-curvature="0"
     sodipodi:nodetypes="ccc" /></g><text
   sodipodi:linespacing="125%"
   id="text4615"
   y="-18.126017"
   x="56.373688"
   style="font-size:7.57278013px;font-style:normal;font-variant:normal;font-weight:300;font-stretch:normal;text-align:start;line-height:125%;letter-spacing:0px;word-spacing:0px;writing-mode:lr-tb;text-anchor:start;fill:#000000;fill-opacity:1;stroke:none;display:inline;font-family:Source Code Pro;-inkscape-font-specification:Source Code Pro Light"
   xml:space="preserve"><tspan
     y="-18.126017"
     x="56.373688"
     id="tspan4617"
     sodipodi:role="line">37mm</tspan></text>
<path
   id="path4625"
   style="color:#000000;fill:none;stroke:#000000;stroke-width:0.2;stroke-linecap:butt;stroke-linejoin:bevel;stroke-miterlimit:4;stroke-opacity:1;stroke-dasharray:none;stroke-dashoffset:0;marker:none;visibility:visible;display:inline;overflow:visible;enable-background:accumulate"
   d="m 128.63317,-22.523394 1.97787,1.977874 -1.97787,1.977874 m -126.163847,0 -1.977875,-1.977874 1.977875,-1.977874 m 76.621104,1.977874 51.539183,0 m -130.156731,0 51.539183,0"
   inkscape:connector-curvature="0"
   sodipodi:nodetypes="cccccccccc" /><path
   id="path3095-3"
   style="color:#000000;fill:#f2f2f2;fill-opacity:1;fill-rule:nonzero;stroke:none;stroke-width:1;marker:none;visibility:visible;display:inline;overflow:visible;enable-background:accumulate"
   d="m 100.98432,65.551246 c 0,19.569147 -15.863928,35.433064 -35.43307,35.433064 -19.569148,0 -35.433074,-15.863917 -35.433074,-35.433064 0,-19.569142 15.863926,-35.433074 35.433074,-35.433074 19.569142,0 35.43307,15.863932 35.43307,35.433074 z M 0,1.3148688e-4 0,131.10249 l 131.10236,0 0,-131.10235851312 z"
   inkscape:connector-curvature="0" /><path
   style="color:#000000;fill:none;stroke:#999999;stroke-width:0.99999994;marker:none;visibility:visible;display:inline;overflow:visible;enable-background:accumulate"
   d="m 101.48425,65.551252 c 0,19.845251 -16.087754,35.932998 -35.933,35.932998 -19.845253,0 -35.933005,-16.087747 -35.933005,-35.932998 0,-19.845247 16.087752,-35.933007 35.933005,-35.933007 19.845246,0 35.933,16.08776 35.933,35.933007 z"
   id="path3095-2"
   inkscape:connector-curvature="0" /></g></svg>